<?xml version="1.0" encoding="utf-8"?>
<!-- Generator: Adobe Illustrator 25.4.1, SVG Export Plug-In . SVG Version: 6.00 Build 0)  -->
<svg version="1.1" id="Layer_1" xmlns="http://www.w3.org/2000/svg" xmlns:xlink="http://www.w3.org/1999/xlink" x="0px" y="0px"
	 viewBox="0 0 852 264" style="enable-background:new 0 0 852 264;" xml:space="preserve">
<style type="text/css">
	.st0{fill:#FF0000;}
	.st1{fill:#FFFFFF;}
	.st2{fill:#161616;}
</style>
<rect x="-4319.8" y="-10923.5" class="st0" width="1167.5" height="1135.1"/>
<rect x="-4084.1" y="-10690.6" class="st1" width="607.1" height="705.9"/>
<g id="BACKGROUND">
</g>
<g id="OBJECT_00000150082829830216076550000000441943208721160603_">
	<path class="st0" d="M-3770.6-10877.3c-288.7,0-522.7,234-522.7,522.7s234,522.7,522.7,522.7s522.7-234,522.7-522.7
		C-3247.9-10643.3-3481.9-10877.3-3770.6-10877.3z M-3856.7-10591.3c0-46,37-84.7,84.1-85.8c48.4-1.1,88.2,37.1,88.2,84.2v43.8
		h-26.7v-42.5c0-31.6-25.3-58.4-57.6-59.4c-33.6-0.9-61.2,25.5-61.2,58.1v43.8h-26.7v-42.2L-3856.7-10591.3L-3856.7-10591.3z
		 M-3757.1-10244.1c0,29.3-23.6,54-53.6,54.6c-30.9,0.8-56.2-23.6-56.2-53.6v-27.8h17v27.1c0,20.2,16.1,37.2,36.7,37.8
		c21.4,0.6,39-16.3,39-37v-27.8l0,0l0,0h17v26.7H-3757.1z M-3540.1-10032.2h-98c0-0.8,0-1.7-0.1-2.5l-28.5-264.5
		c-1.4-13.2-13.1-23.1-27-23.1h-236.6c-13.9,0-25.6,10-27,23.1l-28.5,264.5c-0.1,0.8-0.2,1.7-0.2,2.5h-15.1
		c-25.2,0-44.9-20.7-42.4-44.4l44.7-415.4c2.2-20.6,20.6-36.3,42.4-36.3h371.5c21.8,0,40.1,15.7,42.4,36.3l44.7,415.4
		C-3495.1-10052.9-3514.8-10032.2-3540.1-10032.2z"/>
</g>
<g id="OBJECT_00000161617208449392919570000001390089174293282981_">
	<path class="st0" d="M-2502.3-10575.4c-140.6,0-254.7,114-254.7,254.7c0,140.6,114,254.7,254.7,254.7
		c140.6,0,254.7-114,254.7-254.7S-2361.6-10575.4-2502.3-10575.4z M-2544.2-10436c0-22.4,18-41.3,41-41.8c23.6-0.5,43,18.1,43,41
		v21.3h-13v-20.7c0-15.4-12.3-28.4-28.1-28.9c-16.4-0.5-29.8,12.4-29.8,28.3v21.3h-13L-2544.2-10436L-2544.2-10436L-2544.2-10436z
		 M-2495.7-10266.9c0,14.3-11.5,26.3-26.1,26.6c-15,0.4-27.4-11.5-27.4-26.1v-13.6h8.3v13.2c0,9.8,7.8,18.1,17.9,18.4
		c10.4,0.3,19-7.9,19-18v-13.6l0,0l0,0h8.3V-10266.9L-2495.7-10266.9z M-2390-10163.6h-47.7c0-0.4,0-0.8,0-1.2l-13.9-128.9
		c-0.7-6.4-6.4-11.3-13.1-11.3h-115.4c-6.8,0-12.5,4.8-13.1,11.3l-13.9,128.9c0,0.4-0.1,0.8-0.1,1.2h-7.4
		c-12.3,0-21.9-10.1-20.7-21.7l21.8-202.4c1.1-10,10-17.7,20.7-17.7h181c10.6,0,19.6,7.6,20.7,17.7l21.8,202.4
		C-2368.1-10173.7-2377.6-10163.6-2390-10163.6z"/>
</g>
<g>
	<g id="OBJECT_00000134246327253985415660000016516075552423477406_">
		<path class="st1" d="M-3499.1-8993.9c-342.3,0-619.8,277.5-619.8,619.8s277.5,619.8,619.8,619.8s619.8-277.5,619.8-619.8
			S-3156.8-8993.9-3499.1-8993.9z M-3601.2-8654.7c0-54.6,43.9-100.4,99.7-101.7c57.4-1.3,104.6,44,104.6,99.9v51.9h-31.7v-50.4
			c0-37.5-30-69.2-68.3-70.4c-39.8-1.1-72.6,30.2-72.6,68.9v51.9h-31.7V-8654.7z M-3483.1-8243c0,34.8-28,64-63.5,64.8
			c-36.6,0.9-66.6-28-66.6-63.6v-33h20.2v32.1c0,23.9,19.1,44.1,43.5,44.8c25.4,0.7,46.2-19.3,46.2-43.9v-33l0,0l0,0h20.2
			L-3483.1-8243L-3483.1-8243z M-3225.8-7991.8H-3342c0-1,0-2-0.1-3l-33.8-313.7c-1.7-15.6-15.5-27.4-32-27.4h-280.6
			c-16.5,0-30.3,11.8-32,27.4l-33.8,313.7c-0.1,1-0.2,2-0.2,3h-17.9c-29.9,0-53.3-24.5-50.3-52.7l53-492.6c2.6-24.4,24.4-43,50.3-43
			h440.5c25.9,0,47.6,18.6,50.3,43l53,492.6C-3172.5-8016.3-3195.8-7991.8-3225.8-7991.8z"/>
	</g>
	<g>
		<path class="st1" d="M-2609.1-8580.1h158.8l124.3,246.2h5.2l124.4-246.2h158.8l-215.1,391.8v196.5H-2394v-196.5L-2609.1-8580.1z"
			/>
		<path class="st1" d="M-1999.8-8464.7v-115.4h497.3v115.4h-178.4v472.9H-1821v-472.9H-1999.8z"/>
		<path class="st1" d="M-1015.9-8400.4c-1.9-20.5-10.2-36.5-24.8-48c-14.7-11.4-35.5-17.2-62.6-17.2c-18,0-32.9,2.4-44.8,7
			s-20.9,11.1-26.8,19.1c-6,8.1-9.1,17.4-9.3,27.8c-0.4,8.6,1.4,16.2,5.1,22.7c3.8,6.5,9.4,12.2,16.8,17.2c7.4,4.9,16.3,9.3,26.7,13
			c10.5,3.7,22.2,7,35.2,9.8l49.2,11.1c28.3,6.1,53.4,14.4,75.2,24.7c21.7,10.3,40.1,22.5,54.9,36.7s26,30.5,33.7,48.9
			c7.7,18.4,11.5,39.2,11.7,62.2c-0.2,36.2-9.4,67.3-27.4,93.2c-18.1,25.9-44.1,45.8-77.9,59.6c-33.8,13.8-74.7,20.7-122.4,20.7
			c-47.9,0-89.8-7.2-125.4-21.5c-35.6-14.4-63.3-36.2-83.2-65.5c-19.7-29.3-30-66.3-30.5-111.1h132.8c1.1,18.4,6,33.8,14.8,46.2
			c8.8,12.3,20.8,21.6,36.2,28c15.4,6.3,33.2,9.5,53.6,9.5c18.6,0,34.5-2.6,47.8-7.6c13.1-5,23.3-12,30.4-21s10.8-19.2,11-30.8
			c-0.2-10.9-3.6-20.1-10.1-27.8c-6.5-7.7-16.6-14.5-30.1-20.1c-13.5-5.7-30.8-11-51.6-15.8l-59.9-14
			c-49.6-11.3-88.7-29.8-117.3-55.3c-28.5-25.5-42.7-60-42.5-103.4c-0.2-35.4,9.4-66.5,28.5-93.2c19.2-26.6,45.8-47.5,79.8-62.5
			c33.9-14.9,72.7-22.4,116.1-22.4c44.4,0,83,7.5,115.7,22.5s58.2,36.1,76.3,63.1s27.3,58.4,27.7,94L-1015.9-8400.4L-1015.9-8400.4z
			"/>
		<path class="st1" d="M-836.1-7991.8v-588.3h142.2v236.1h231.8v-236.1h142v588.3h-142v-236.4h-231.8v236.4H-836.1L-836.1-7991.8z"
			/>
		<path class="st1" d="M277-8286c0,63-12.1,116.4-36.4,160.3c-24.2,43.8-57,77.1-98.3,99.8c-41.3,22.8-87.5,34.1-138.9,34.1
			s-97.8-11.4-139-34.4s-73.8-56.3-98-99.9c-24.1-43.8-36.2-97-36.2-159.8c0-63,12-116.4,36.2-160.2c24.1-43.8,56.8-77.1,98-99.8
			c41.2-22.8,87.5-34.1,139-34.1c51.2,0,97.6,11.3,138.9,34.1s74,56,98.3,99.8C264.9-8402.4,277-8349,277-8286z M135.6-8286
			c0-37.3-5.2-68.8-15.8-94.5c-10.5-25.7-25.6-45.2-45.3-58.4s-43.3-19.8-70.9-19.8c-27.4,0-51,6.6-70.8,19.8
			c-19.7,13.2-34.9,32.7-45.4,58.4s-15.8,57.3-15.8,94.5c0,37.3,5.2,68.8,15.8,94.5c10.5,25.7,25.7,45.2,45.4,58.4
			c19.7,13.2,43.4,19.8,70.8,19.8c27.6,0,51.2-6.6,70.9-19.8c19.7-13.2,34.8-32.7,45.3-58.4C130.2-8217.3,135.6-8248.7,135.6-8286z"
			/>
		<path class="st1" d="M328-7991.8v-588.3h243c44,0,82.1,8.6,114.2,25.7c32.1,17.1,56.8,41,74.2,71.5c17.4,30.6,26.1,66,26.1,106.4
			c0,40.6-8.9,76-26.5,106.4c-17.7,30.4-42.9,53.9-75.7,70.5c-32.7,16.7-71.6,25-116.6,25h-150v-112h123.5
			c21.5,0,39.4-3.7,53.9-11.2s25.4-17.9,32.9-31.5s11.2-29.3,11.2-47.3c0-18.2-3.7-33.9-11.2-47.3c-7.5-13.3-18.5-23.6-33-30.9
			c-14.6-7.3-32.5-10.9-53.8-10.9h-70.1v473.7H327.9v0.2L328-7991.8L328-7991.8z"/>
		<path class="st1" d="M1132.9-8400.4c-1.9-20.5-10.2-36.5-24.9-48.1c-14.7-11.4-35.7-17.2-62.8-17.2c-18,0-33,2.4-45,7
			s-21,11.1-26.9,19.1c-6,8.1-9.1,17.4-9.3,27.8c-0.4,8.6,1.4,16.2,5.2,22.7c3.9,6.5,9.4,12.2,16.8,17.2c7.4,4.9,16.3,9.3,26.8,13
			s22.3,7,35.4,9.8l49.4,11.1c28.4,6.1,53.6,14.4,75.5,24.7c21.8,10.3,40.2,22.5,55.1,36.7s26.2,30.5,33.9,48.9
			c7.7,18.5,11.6,39.2,11.8,62.2c-0.2,36.2-9.4,67.3-27.5,93.2s-44.3,45.8-78.3,59.6c-34,13.8-75,20.7-122.9,20.7
			c-48.1,0-90.1-7.2-125.9-21.5c-35.8-14.4-63.6-36.2-83.5-65.5c-19.8-29.3-30.1-66.3-30.6-111.1h133.2c1.1,18.5,6,33.8,14.9,46.2
			c8.8,12.3,20.9,21.6,36.4,28c15.5,6.3,33.4,9.5,53.8,9.5c18.7,0,34.7-2.6,47.9-7.6c13.3-5,23.4-12,30.5-21
			c7.1-9,10.8-19.2,11-30.8c-0.2-10.9-3.6-20.1-10.1-27.8c-6.5-7.7-16.6-14.5-30.2-20.1c-13.6-5.7-30.9-11-51.8-15.8l-60.1-14
			c-49.8-11.3-89.1-29.8-117.8-55.3c-28.6-25.5-42.9-60-42.7-103.4c-0.2-35.4,9.4-66.5,28.6-93.2c19.3-26.6,46-47.5,80.1-62.5
			c34.1-14.9,73-22.4,116.6-22.4c44.6,0,83.3,7.5,116.2,22.5s58.4,36.1,76.6,63.1c18.1,27,27.4,58.4,27.8,94L1132.9-8400.4
			L1132.9-8400.4z"/>
	</g>
	<g>
		<g>
			<path class="st1" d="M2481.1-8580.1h-622.8c-162.5,0-294.1,131.7-294.2,294.2c0,162.5,131.7,294.1,294.2,294.1h622.8
				c162.5,0,294.2-131.7,294.2-294.2C2775.3-8448.5,2643.6-8580.1,2481.1-8580.1z"/>
		</g>
		<g>
			<path class="st0" d="M1825.1-8200.3h-44.5l57.8-171.2h55.1l57.8,171.2h-44.5l-40.3-128.1h-1.3L1825.1-8200.3z M1819.1-8267.7h93
				v31.4h-93V-8267.7z"/>
			<path class="st0" d="M1960.3-8200.3v-171.3h41.4v137.6h71.2v33.6L1960.3-8200.3L1960.3-8200.3z"/>
			<path class="st0" d="M2084.9-8200.3v-171.3h70.7c12.8,0,23.9,2.5,33.2,7.5c9.3,5,16.5,11.9,21.6,20.8s7.6,19.2,7.6,31
				s-2.6,22.1-7.7,31c-5.2,8.8-12.5,15.7-22,20.5s-20.8,7.3-33.9,7.3h-43.6v-32.6h36c6.2,0,11.5-1.1,15.7-3.3
				c4.2-2.2,7.4-5.2,9.6-9.2s3.3-8.5,3.3-13.8c0-5.3-1.1-9.9-3.3-13.8s-5.4-6.9-9.6-9c-4.2-2.1-9.4-3.2-15.6-3.2h-20.4v137.9h-41.6
				V-8200.3L2084.9-8200.3z"/>
			<path class="st0" d="M2229-8200.3v-171.3h41.4v68.7h67.5v-68.7h41.3v171.2h-41.3v-68.8h-67.5v68.8L2229-8200.3L2229-8200.3z"/>
			<path class="st0" d="M2432.7-8200.3h-44.5l57.8-171.2h55.1l57.8,171.2h-44.5l-40.3-128.1h-1.3L2432.7-8200.3z M2426.7-8267.7h93
				v31.4h-93V-8267.7z"/>
		</g>
	</g>
</g>
<g>
	<g id="OBJECT_00000121281207843752625870000016321489660399262337_">
		<path class="st0" d="M-3499.1-4250.3c-342.3,0-619.8,277.5-619.8,619.8s277.5,619.8,619.8,619.8s619.8-277.5,619.8-619.8
			S-3156.8-4250.3-3499.1-4250.3z M-3601.2-3911.1c0-54.6,43.9-100.4,99.7-101.7c57.4-1.3,104.6,44,104.6,99.9v51.9h-31.7v-50.4
			c0-37.5-30-69.2-68.3-70.4c-39.8-1.1-72.6,30.2-72.6,68.9v51.9h-31.7V-3911.1z M-3483.1-3499.4c0,34.8-28,64-63.5,64.8
			c-36.6,0.9-66.6-28-66.6-63.6v-33h20.2v32.1c0,23.9,19.1,44.1,43.5,44.8c25.4,0.7,46.2-19.3,46.2-43.9v-33l0,0l0,0h20.2
			L-3483.1-3499.4L-3483.1-3499.4z M-3225.8-3248.2H-3342c0-1,0-2-0.1-3l-33.8-313.7c-1.7-15.6-15.5-27.4-32-27.4h-280.6
			c-16.5,0-30.3,11.8-32,27.4l-33.8,313.7c-0.1,1-0.2,2-0.2,3h-17.9c-29.9,0-53.3-24.5-50.3-52.7l53-492.6c2.6-24.4,24.4-43,50.3-43
			h440.5c25.9,0,47.6,18.6,50.3,43l53,492.6C-3172.5-3272.7-3195.8-3248.2-3225.8-3248.2z"/>
	</g>
	<g>
		<g>
			<path class="st0" d="M-2609.1-3836.5h158.8l124.4,246.2h5.2l124.4-246.2h158.8l-215.1,391.8v196.5h-141.3v-196.5L-2609.1-3836.5z
				"/>
			<path class="st0" d="M-1999.8-3721.1v-115.4h497.3v115.4h-178.4v472.9H-1821v-472.9H-1999.8z"/>
			<path class="st0" d="M-1015.9-3656.7c-1.9-20.5-10.2-36.5-24.8-48c-14.7-11.4-35.5-17.2-62.6-17.2c-18,0-32.9,2.4-44.8,7
				s-20.9,11.1-26.8,19.1c-6,8.1-9.1,17.4-9.3,27.8c-0.4,8.6,1.4,16.2,5.1,22.7c3.8,6.5,9.4,12.2,16.8,17.2
				c7.4,4.9,16.3,9.3,26.7,13s22.2,7,35.2,9.8l49.2,11.1c28.3,6.1,53.4,14.4,75.2,24.7c21.7,10.3,40.1,22.5,54.9,36.7
				s26,30.5,33.7,48.9s11.5,39.2,11.7,62.2c-0.2,36.2-9.4,67.3-27.4,93.2c-18.1,25.9-44.1,45.8-77.9,59.6s-74.7,20.7-122.4,20.7
				c-47.9,0-89.8-7.2-125.4-21.5c-35.6-14.4-63.3-36.2-83.2-65.5c-19.7-29.3-30-66.3-30.5-111.1h132.8c1.1,18.4,6,33.8,14.8,46.2
				s20.8,21.6,36.2,28c15.4,6.3,33.2,9.5,53.6,9.5c18.6,0,34.5-2.6,47.8-7.6c13.1-5,23.3-12,30.4-21s10.8-19.2,11-30.8
				c-0.2-10.9-3.6-20.1-10.1-27.8s-16.6-14.5-30.1-20.1c-13.5-5.7-30.8-11-51.6-15.8l-59.9-14c-49.6-11.3-88.7-29.8-117.3-55.3
				c-28.5-25.5-42.7-60-42.5-103.4c-0.2-35.4,9.4-66.5,28.5-93.2c19.2-26.6,45.8-47.5,79.8-62.5c33.9-14.9,72.7-22.4,116.1-22.4
				c44.4,0,83,7.5,115.7,22.5s58.2,36.1,76.3,63.1s27.3,58.4,27.7,94L-1015.9-3656.7L-1015.9-3656.7z"/>
			<path class="st0" d="M-836.1-3248.2v-588.3h142.2v236.1h231.8v-236.1h142v588.3h-142v-236.4h-231.8v236.4H-836.1z"/>
			<path class="st0" d="M277-3542.4c0,63-12.1,116.4-36.4,160.3c-24.2,43.8-57,77.1-98.3,99.8c-41.3,22.8-87.5,34.1-138.9,34.1
				s-97.8-11.4-139-34.4s-73.8-56.3-98-99.9c-24.1-43.8-36.2-97-36.2-159.8c0-63,12-116.4,36.2-160.2c24.1-43.8,56.8-77.1,98-99.8
				c41.2-22.8,87.5-34.1,139-34.1c51.2,0,97.6,11.3,138.9,34.1s74,56,98.3,99.8C264.9-3658.8,277-3605.4,277-3542.4z M135.6-3542.4
				c0-37.3-5.2-68.8-15.8-94.5c-10.5-25.7-25.6-45.2-45.3-58.4s-43.3-19.8-70.9-19.8c-27.4,0-51,6.6-70.8,19.8
				c-19.7,13.2-34.9,32.7-45.4,58.4s-15.8,57.3-15.8,94.5c0,37.3,5.2,68.8,15.8,94.5c10.5,25.7,25.7,45.2,45.4,58.4
				s43.4,19.8,70.8,19.8c27.6,0,51.2-6.6,70.9-19.8s34.8-32.7,45.3-58.4C130.2-3473.6,135.6-3505.1,135.6-3542.4z"/>
			<path class="st0" d="M328-3248.2v-588.3h243c44,0,82.1,8.6,114.2,25.7c32.1,17.1,56.8,41,74.2,71.5c17.4,30.6,26.1,66,26.1,106.4
				c0,40.6-8.9,76-26.5,106.4c-17.7,30.4-42.9,53.9-75.7,70.5c-32.7,16.7-71.6,25-116.6,25h-150v-112h123.5
				c21.5,0,39.4-3.7,53.9-11.2s25.4-17.9,32.9-31.5s11.2-29.3,11.2-47.3c0-18.2-3.7-33.9-11.2-47.3c-7.5-13.3-18.5-23.6-33-30.9
				c-14.6-7.3-32.5-10.9-53.8-10.9h-70.1v473.7H327.9v0.2L328-3248.2L328-3248.2z"/>
			<path class="st0" d="M1132.9-3656.7c-1.9-20.5-10.2-36.5-24.9-48.1c-14.7-11.4-35.7-17.2-62.8-17.2c-18,0-33,2.4-45,7
				s-21,11.1-26.9,19.1c-6,8.1-9.1,17.4-9.3,27.8c-0.4,8.6,1.4,16.2,5.2,22.7c3.9,6.5,9.4,12.2,16.8,17.2c7.4,4.9,16.3,9.3,26.8,13
				s22.3,7,35.4,9.8l49.4,11.1c28.4,6.1,53.6,14.4,75.5,24.7c21.8,10.3,40.2,22.5,55.1,36.7s26.2,30.5,33.9,48.9
				c7.7,18.5,11.6,39.2,11.8,62.2c-0.2,36.2-9.4,67.3-27.5,93.2s-44.3,45.8-78.3,59.6s-75,20.7-122.9,20.7
				c-48.1,0-90.1-7.2-125.9-21.5c-35.8-14.4-63.6-36.2-83.5-65.5c-19.8-29.3-30.1-66.3-30.6-111.1h133.2c1.1,18.5,6,33.8,14.9,46.2
				c8.8,12.3,20.9,21.6,36.4,28c15.5,6.3,33.4,9.5,53.8,9.5c18.7,0,34.7-2.6,47.9-7.6c13.3-5,23.4-12,30.5-21
				c7.1-9,10.8-19.2,11-30.8c-0.2-10.9-3.6-20.1-10.1-27.8s-16.6-14.5-30.2-20.1c-13.6-5.7-30.9-11-51.8-15.8l-60.1-14
				c-49.8-11.3-89.1-29.8-117.8-55.3c-28.6-25.5-42.9-60-42.7-103.4c-0.2-35.4,9.4-66.5,28.6-93.2c19.3-26.6,46-47.5,80.1-62.5
				c34.1-14.9,73-22.4,116.6-22.4c44.6,0,83.3,7.5,116.2,22.5s58.4,36.1,76.6,63.1s27.4,58.4,27.8,94L1132.9-3656.7L1132.9-3656.7z"
				/>
		</g>
	</g>
	<g>
		<g>
			<path class="st0" d="M2481.1-3836.5h-622.8c-162.5,0-294.1,131.7-294.2,294.2c0,162.5,131.7,294.1,294.2,294.1h622.8
				c162.5,0,294.2-131.7,294.2-294.2S2643.6-3836.5,2481.1-3836.5z"/>
		</g>
		<g>
			<path class="st1" d="M1825.1-3456.7h-44.5l57.8-171.2h55.1l57.8,171.2h-44.5l-40.3-128.1h-1.3L1825.1-3456.7z M1819.1-3524.1h93
				v31.4h-93V-3524.1z"/>
			<path class="st1" d="M1960.3-3456.7V-3628h41.4v137.6h71.2v33.6L1960.3-3456.7L1960.3-3456.7z"/>
			<path class="st1" d="M2084.9-3456.7V-3628h70.7c12.8,0,23.9,2.5,33.2,7.5c9.3,5,16.5,11.9,21.6,20.8c5.1,8.9,7.6,19.2,7.6,31
				s-2.6,22.1-7.7,31c-5.2,8.8-12.5,15.7-22,20.5s-20.8,7.3-33.9,7.3h-43.6v-32.6h36c6.2,0,11.5-1.1,15.7-3.3
				c4.2-2.2,7.4-5.2,9.6-9.2s3.3-8.5,3.3-13.8s-1.1-9.9-3.3-13.8c-2.2-3.9-5.4-6.9-9.6-9c-4.2-2.1-9.4-3.2-15.6-3.2h-20.4v137.9
				h-41.6V-3456.7L2084.9-3456.7z"/>
			<path class="st1" d="M2229-3456.7V-3628h41.4v68.7h67.5v-68.7h41.3v171.2h-41.3v-68.8h-67.5v68.8L2229-3456.7L2229-3456.7z"/>
			<path class="st1" d="M2432.7-3456.7h-44.5l57.8-171.2h55.1l57.8,171.2h-44.5l-40.3-128.1h-1.3L2432.7-3456.7z M2426.7-3524.1h93
				v31.4h-93V-3524.1z"/>
		</g>
	</g>
</g>
<g>
	<g id="OBJECT_00000182512049141513081560000013305010737105210524_">
		<path class="st0" d="M-3499.1-6808.4c-342.3,0-619.8,277.5-619.8,619.8s277.5,619.8,619.8,619.8s619.8-277.5,619.8-619.8
			C-2879.3-6530.9-3156.8-6808.4-3499.1-6808.4z M-3601.2-6469.2c0-54.6,43.9-100.4,99.7-101.7c57.4-1.3,104.6,44,104.6,99.9v51.9
			h-31.7v-50.4c0-37.5-30-69.2-68.3-70.4c-39.8-1.1-72.6,30.2-72.6,68.9v51.9h-31.7V-6469.2z M-3483.1-6057.5
			c0,34.8-28,64-63.5,64.8c-36.6,0.9-66.6-28-66.6-63.6v-33h20.2v32.1c0,23.9,19.1,44.1,43.5,44.8c25.4,0.7,46.2-19.3,46.2-43.9v-33
			l0,0l0,0h20.2L-3483.1-6057.5L-3483.1-6057.5z M-3225.8-5806.3H-3342c0-1,0-2-0.1-3l-33.8-313.7c-1.7-15.6-15.5-27.4-32-27.4
			h-280.6c-16.5,0-30.3,11.8-32,27.4l-33.8,313.7c-0.1,1-0.2,2-0.2,3h-17.9c-29.9,0-53.3-24.5-50.3-52.7l53-492.6
			c2.6-24.4,24.4-43,50.3-43h440.5c25.9,0,47.6,18.6,50.3,43l53,492.6C-3172.5-5830.8-3195.8-5806.3-3225.8-5806.3z"/>
	</g>
	<g>
		<g>
			<path class="st2" d="M-2609.1-6394.6h158.8l124.4,246.2h5.2l124.4-246.2h158.8l-215.1,391.8v196.5h-141.3v-196.5L-2609.1-6394.6z
				"/>
			<path class="st2" d="M-1999.8-6279.2v-115.4h497.3v115.4h-178.4v472.9H-1821v-472.9H-1999.8z"/>
			<path class="st2" d="M-1015.9-6214.8c-1.9-20.5-10.2-36.5-24.8-48c-14.7-11.4-35.5-17.2-62.6-17.2c-18,0-32.9,2.4-44.8,7
				s-20.9,11.1-26.8,19.1c-6,8.1-9.1,17.4-9.3,27.8c-0.4,8.6,1.4,16.2,5.1,22.7c3.8,6.5,9.4,12.2,16.8,17.2
				c7.4,4.9,16.3,9.3,26.7,13s22.2,7,35.2,9.8l49.2,11.1c28.3,6.1,53.4,14.4,75.2,24.7c21.7,10.3,40.1,22.5,54.9,36.7
				s26,30.5,33.7,48.9s11.5,39.2,11.7,62.2c-0.2,36.2-9.4,67.3-27.4,93.2c-18.1,25.9-44.1,45.8-77.9,59.6
				c-33.8,13.8-74.7,20.7-122.4,20.7c-47.9,0-89.8-7.2-125.4-21.5c-35.6-14.4-63.3-36.2-83.2-65.5c-19.7-29.3-30-66.3-30.5-111.1
				h132.8c1.1,18.4,6,33.8,14.8,46.2s20.8,21.6,36.2,28c15.4,6.3,33.2,9.5,53.6,9.5c18.6,0,34.5-2.6,47.8-7.6
				c13.1-5,23.3-12,30.4-21s10.8-19.2,11-30.8c-0.2-10.9-3.6-20.1-10.1-27.8c-6.5-7.7-16.6-14.5-30.1-20.1
				c-13.5-5.7-30.8-11-51.6-15.8l-59.9-14c-49.6-11.3-88.7-29.8-117.3-55.3c-28.5-25.5-42.7-60-42.5-103.4
				c-0.2-35.4,9.4-66.5,28.5-93.2c19.2-26.6,45.8-47.5,79.8-62.5c33.9-14.9,72.7-22.4,116.1-22.4c44.4,0,83,7.5,115.7,22.5
				s58.2,36.1,76.3,63.1s27.3,58.4,27.7,94L-1015.9-6214.8L-1015.9-6214.8z"/>
			<path class="st2" d="M-836.1-5806.3v-588.3h142.2v236.1h231.8v-236.1h142v588.3h-142v-236.4h-231.8v236.4H-836.1z"/>
			<path class="st2" d="M277-6100.5c0,63-12.1,116.4-36.4,160.3c-24.2,43.8-57,77.1-98.3,99.8c-41.3,22.8-87.5,34.1-138.9,34.1
				s-97.8-11.4-139-34.4s-73.8-56.3-98-99.9c-24.1-43.8-36.2-97-36.2-159.8c0-63,12-116.4,36.2-160.2c24.1-43.8,56.8-77.1,98-99.8
				c41.2-22.8,87.5-34.1,139-34.1c51.2,0,97.6,11.3,138.9,34.1c41.3,22.8,74,56,98.3,99.8C264.9-6216.9,277-6163.5,277-6100.5z
				 M135.6-6100.5c0-37.3-5.2-68.8-15.8-94.5c-10.5-25.7-25.6-45.2-45.3-58.4c-19.7-13.2-43.3-19.8-70.9-19.8
				c-27.4,0-51,6.6-70.8,19.8c-19.7,13.2-34.9,32.7-45.4,58.4c-10.5,25.7-15.8,57.3-15.8,94.5c0,37.3,5.2,68.8,15.8,94.5
				c10.5,25.7,25.7,45.2,45.4,58.4c19.7,13.2,43.4,19.8,70.8,19.8c27.6,0,51.2-6.6,70.9-19.8c19.7-13.2,34.8-32.7,45.3-58.4
				C130.2-6031.7,135.6-6063.2,135.6-6100.5z"/>
			<path class="st2" d="M328-5806.3v-588.3h243c44,0,82.1,8.6,114.2,25.7s56.8,41,74.2,71.5c17.4,30.6,26.1,66,26.1,106.4
				c0,40.6-8.9,76-26.5,106.4c-17.7,30.4-42.9,53.9-75.7,70.5c-32.7,16.7-71.6,25-116.6,25h-150v-112h123.5
				c21.5,0,39.4-3.7,53.9-11.2s25.4-17.9,32.9-31.5s11.2-29.3,11.2-47.3c0-18.2-3.7-33.9-11.2-47.3c-7.5-13.3-18.5-23.6-33-30.9
				c-14.6-7.3-32.5-10.9-53.8-10.9h-70.1v473.7H327.9v0.2L328-5806.3L328-5806.3z"/>
			<path class="st2" d="M1132.9-6214.8c-1.9-20.5-10.2-36.5-24.9-48.1c-14.7-11.4-35.7-17.2-62.8-17.2c-18,0-33,2.4-45,7
				s-21,11.1-26.9,19.1c-6,8.1-9.1,17.4-9.3,27.8c-0.4,8.6,1.4,16.2,5.2,22.7c3.9,6.5,9.4,12.2,16.8,17.2c7.4,4.9,16.3,9.3,26.8,13
				s22.3,7,35.4,9.8l49.4,11.1c28.4,6.1,53.6,14.4,75.5,24.7c21.8,10.3,40.2,22.5,55.1,36.7s26.2,30.5,33.9,48.9
				c7.7,18.5,11.6,39.2,11.8,62.2c-0.2,36.2-9.4,67.3-27.5,93.2s-44.3,45.8-78.3,59.6c-34,13.8-75,20.7-122.9,20.7
				c-48.1,0-90.1-7.2-125.9-21.5c-35.8-14.4-63.6-36.2-83.5-65.5c-19.8-29.3-30.1-66.3-30.6-111.1h133.2c1.1,18.5,6,33.8,14.9,46.2
				c8.8,12.3,20.9,21.6,36.4,28c15.5,6.3,33.4,9.5,53.8,9.5c18.7,0,34.7-2.6,47.9-7.6c13.3-5,23.4-12,30.5-21
				c7.1-9,10.8-19.2,11-30.8c-0.2-10.9-3.6-20.1-10.1-27.8s-16.6-14.5-30.2-20.1c-13.6-5.7-30.9-11-51.8-15.8l-60.1-14
				c-49.8-11.3-89.1-29.8-117.8-55.3c-28.6-25.5-42.9-60-42.7-103.4c-0.2-35.4,9.4-66.5,28.6-93.2c19.3-26.6,46-47.5,80.1-62.5
				c34.1-14.9,73-22.4,116.6-22.4c44.6,0,83.3,7.5,116.2,22.5s58.4,36.1,76.6,63.1s27.4,58.4,27.8,94L1132.9-6214.8L1132.9-6214.8z"
				/>
		</g>
	</g>
	<g>
		<g>
			<path class="st0" d="M2481.1-6394.6h-622.8c-162.5,0-294.1,131.7-294.2,294.2c0,162.5,131.7,294.1,294.2,294.1h622.8
				c162.5,0,294.2-131.7,294.2-294.2S2643.6-6394.6,2481.1-6394.6z"/>
		</g>
		<g>
			<path class="st1" d="M1825.1-6014.8h-44.5l57.8-171.2h55.1l57.8,171.2h-44.5l-40.3-128.1h-1.3L1825.1-6014.8z M1819.1-6082.2h93
				v31.4h-93V-6082.2z"/>
			<path class="st1" d="M1960.3-6014.8v-171.3h41.4v137.6h71.2v33.6L1960.3-6014.8L1960.3-6014.8z"/>
			<path class="st1" d="M2084.9-6014.8v-171.3h70.7c12.8,0,23.9,2.5,33.2,7.5c9.3,5,16.5,11.9,21.6,20.8s7.6,19.2,7.6,31
				s-2.6,22.1-7.7,31c-5.2,8.8-12.5,15.7-22,20.5s-20.8,7.3-33.9,7.3h-43.6v-32.6h36c6.2,0,11.5-1.1,15.7-3.3
				c4.2-2.2,7.4-5.2,9.6-9.2s3.3-8.5,3.3-13.8s-1.1-9.9-3.3-13.8s-5.4-6.9-9.6-9c-4.2-2.1-9.4-3.2-15.6-3.2h-20.4v137.9h-41.6
				V-6014.8L2084.9-6014.8z"/>
			<path class="st1" d="M2229-6014.8v-171.3h41.4v68.7h67.5v-68.7h41.3v171.2h-41.3v-68.8h-67.5v68.8L2229-6014.8L2229-6014.8z"/>
			<path class="st1" d="M2432.7-6014.8h-44.5L2446-6186h55.1l57.8,171.2h-44.5l-40.3-128.1h-1.3L2432.7-6014.8z M2426.7-6082.2h93
				v31.4h-93V-6082.2z"/>
		</g>
	</g>
</g>
<g>
	<g>
		<path class="st0" d="M-2077.9-13394.2v-266.1h181.7v52.2h-117.3v54.6h105.8v52.4h-105.8v106.9L-2077.9-13394.2L-2077.9-13394.2z"
			/>
		<path class="st0" d="M-1770.8-13390.4c-21,0-39-4.3-54-12.9c-15-8.6-26.6-20.7-34.7-36.1c-8.1-15.5-12.2-33.4-12.2-53.9
			s4-38.5,12.2-54c8.1-15.5,19.7-27.5,34.7-36.1s33-12.9,54-12.9s39,4.3,54,12.9c15,8.6,26.6,20.7,34.7,36.1
			c8.1,15.5,12.2,33.5,12.2,54c0,20.4-4.1,38.4-12.2,53.9s-19.7,27.5-34.7,36.1C-1731.9-13394.7-1749.9-13390.4-1770.8-13390.4z
			 M-1770.5-13438.3c7.6,0,14.1-2.3,19.4-7s9.3-11.2,12.2-19.5c2.8-8.3,4.2-17.9,4.2-28.8c0-11.1-1.4-20.8-4.2-29.1
			c-2.8-8.3-6.9-14.8-12.2-19.5s-11.7-7-19.4-7c-7.9,0-14.5,2.3-19.9,7s-9.5,11.2-12.3,19.5s-4.2,18-4.2,29.1
			c0,10.9,1.4,20.5,4.2,28.8s6.9,14.8,12.3,19.5C-1785-13440.7-1778.3-13438.3-1770.5-13438.3z"/>
		<path class="st0" d="M-1573.8-13508v113.8h-63.5v-199.6h60.4v36.6h2.2c4.4-12.2,12-21.8,22.6-28.8c10.7-7,23.3-10.5,38.1-10.5
			c14,0,26.2,3.1,36.6,9.4c10.4,6.3,18.4,15,24.2,26.2s8.6,24.3,8.5,39.3v127.2h-63.5v-114.5c0.1-11.1-2.7-19.8-8.4-26
			s-13.5-9.4-23.6-9.4c-6.7,0-12.5,1.5-17.6,4.4s-9,7-11.7,12.4C-1572.4-13522.1-1573.8-13515.6-1573.8-13508z"/>
		<path class="st0" d="M-1292.6-13593.8v46.8h-125.9v-46.8H-1292.6z M-1392.2-13641.6h63.5v184.7c0,3.9,0.6,7,1.9,9.4
			s3.1,4.1,5.5,5.1s5.3,1.5,8.7,1.5c2.4,0,5-0.2,7.7-0.7s4.8-0.9,6.2-1.2l9.6,45.9c-3,0.9-7.3,1.9-12.8,3.2s-12.1,2.1-19.7,2.5
			c-14.9,0.7-27.7-1.1-38.3-5.3c-10.6-4.2-18.7-10.8-24.3-19.7s-8.3-20.1-8.1-33.7v-191.7H-1392.2z"/>
		<path class="st0" d="M-1181.4-13394.2v-266.1h181.7v52.2H-1117v54.6h105.7v52.4h-105.8v106.9L-1181.4-13394.2L-1181.4-13394.2z"/>
		<path class="st0" d="M-911.2-13390.8c-12.7,0-24-2.1-33.9-6.4c-9.8-4.3-17.6-10.8-23.3-19.5s-8.5-19.6-8.5-32.8
			c0-11.1,1.9-20.4,5.8-28.1c3.9-7.6,9.3-13.8,16.1-18.6c6.8-4.8,14.7-8.4,23.7-10.9c8.9-2.5,18.5-4.1,28.6-5
			c11.3-1,20.5-2.1,27.4-3.3s12-2.9,15.1-5.1c3.2-2.2,4.7-5.3,4.7-9.4v-0.6c0-6.7-2.3-11.8-6.9-15.5c-4.6-3.6-10.8-5.5-18.6-5.5
			c-8.4,0-15.2,1.8-20.3,5.5c-5.1,3.6-8.4,8.7-9.7,15.1l-58.6-2.1c1.7-12.1,6.2-23,13.4-32.6c7.2-9.6,17.2-17.1,29.9-22.6
			s28-8.3,45.8-8.3c12.7,0,24.5,1.5,35.2,4.5s20.1,7.3,28.1,13s14.1,12.6,18.5,20.9c4.4,8.2,6.6,17.6,6.6,28.2v135.7h-59.8v-27.8
			h-1.6c-3.6,6.8-8.1,12.5-13.6,17.2s-12,8.2-19.4,10.5C-893.6-13392-902-13390.8-911.2-13390.8z M-891.6-13432.4
			c6.8,0,13-1.4,18.5-4.2s9.9-6.6,13.2-11.5c3.3-4.9,4.9-10.6,4.9-17.1v-19c-1.8,1-4,1.8-6.6,2.6s-5.4,1.5-8.4,2.2s-6.2,1.3-9.4,1.8
			s-6.3,1-9.2,1.4c-6,1-11.1,2.4-15.3,4.4s-7.4,4.6-9.6,7.7c-2.2,3.2-3.3,6.9-3.3,11.2c0,6.6,2.4,11.6,7.1,15.1
			C-904.9-13434.1-898.9-13432.4-891.6-13432.4z"/>
		<path class="st0" d="M-753.2-13394.2v-199.6h60.4v36.6h2.2c4.2-12.1,11.2-21.7,21.1-28.7c9.9-7,21.7-10.5,35.3-10.5
			c13.9,0,25.7,3.6,35.6,10.7c9.9,7.1,16.2,16.6,18.8,28.6h2.1c3.7-11.9,11-21.4,21.8-28.5s23.6-10.7,38.3-10.7
			c18.9,0,34.2,6,46,18.1s17.7,28.7,17.7,49.7v134.4h-63.5v-119.8c0-10-2.6-17.6-7.7-22.8c-5.1-5.2-11.7-7.9-19.9-7.9
			c-8.8,0-15.6,2.8-20.6,8.5s-7.5,13.3-7.5,22.8v119.2h-61.1v-120.5c0-9.3-2.5-16.6-7.5-22s-11.7-8.1-19.9-8.1
			c-5.5,0-10.4,1.3-14.7,4c-4.2,2.6-7.6,6.4-9.9,11.2c-2.4,4.9-3.6,10.6-3.6,17.2v118.1H-753.2L-753.2-13394.2z"/>
		<path class="st0" d="M-382.4-13617c-9,0-16.7-3-23.1-8.9c-6.4-5.9-9.6-13.1-9.6-21.5c0-8.3,3.2-15.4,9.6-21.4
			c6.4-5.9,14.1-8.9,23-8.9c9,0,16.7,3,23.1,8.9c6.4,5.9,9.6,13.1,9.6,21.5c0,8.3-3.2,15.4-9.6,21.4
			C-365.8-13620-373.4-13617-382.4-13617z M-414.3-13394.2v-199.6h63.5v199.6H-414.3z"/>
		<path class="st0" d="M-247-13660.3v266.1h-63.5v-266.1H-247z"/>
		<path class="st0" d="M-167.8-13319.3c-7.6,0-14.8-0.6-21.6-1.8c-6.8-1.2-12.6-2.7-17.4-4.6l14-46.1c6.2,2.1,11.9,3.3,17,3.6
			s9.4-0.5,13.1-2.4s6.5-5.4,8.5-10.3l2.5-6l-71-206.9h66.5l36.8,142.4h2.1l37.3-142.4h66.9l-75.2,218.7
			c-3.6,10.9-8.8,20.6-15.4,28.9c-6.6,8.4-15.2,14.9-25.6,19.7C-139.7-13321.7-152.6-13319.3-167.8-13319.3z"/>
		<path class="st0" d="M47-13527.4c-9.4,0-17.3-3.3-24-9.8c-6.6-6.5-9.9-14.5-9.8-24c-0.1-9.2,3.2-17,9.8-23.6
			c6.6-6.5,14.6-9.8,24-9.8c8.8,0,16.7,3.3,23.5,9.8s10.2,14.4,10.3,23.6c-0.1,6.2-1.7,11.9-4.9,17c-3.2,5.1-7.3,9.2-12.3,12.2
			C58.5-13528.9,53-13527.4,47-13527.4z M47-13390.4c-9.4,0-17.3-3.3-24-9.9c-6.6-6.6-9.9-14.6-9.8-23.9c-0.1-9.2,3.2-17,9.8-23.6
			c6.6-6.5,14.6-9.8,24-9.8c8.8,0,16.7,3.3,23.5,9.8s10.2,14.4,10.3,23.6c-0.1,6.2-1.7,11.9-4.9,17c-3.2,5.1-7.3,9.2-12.3,12.2
			C58.5-13391.9,53-13390.4,47-13390.4z"/>
		<path class="st0" d="M265.9-13660.3v266.1h-64.3v-266.1H265.9z"/>
		<path class="st0" d="M369.8-13508v113.8h-63.5v-199.6h60.4v36.6h2.2c4.4-12.2,12-21.8,22.6-28.8c10.7-7,23.3-10.5,38.1-10.5
			c14,0,26.2,3.1,36.6,9.4s18.4,15,24.2,26.2c5.8,11.2,8.6,24.3,8.5,39.3v127.2h-63.5v-114.5c0.1-11.1-2.7-19.8-8.4-26
			s-13.5-9.4-23.6-9.4c-6.7,0-12.5,1.5-17.6,4.4s-9,7-11.7,12.4C371.3-13522.1,369.9-13515.6,369.8-13508z"/>
		<path class="st0" d="M651-13593.8v46.8H525.1v-46.8H651z M551.4-13641.6h63.5v184.7c0,3.9,0.6,7,1.9,9.4s3.1,4.1,5.5,5.1
			s5.3,1.5,8.7,1.5c2.4,0,5-0.2,7.7-0.7s4.8-0.9,6.2-1.2l9.6,45.9c-3,0.9-7.3,1.9-12.8,3.2s-12.1,2.1-19.7,2.5
			c-14.9,0.7-27.7-1.1-38.3-5.3c-10.6-4.2-18.7-10.8-24.3-19.7s-8.3-20.1-8.1-33.7L551.4-13641.6L551.4-13641.6z"/>
		<path class="st0" d="M776.8-13390.4c-20.9,0-38.9-4.1-54-12.4s-26.7-20.1-34.8-35.5s-12.1-33.7-12.1-54.9
			c0-20.6,4.1-38.7,12.2-54.1c8.1-15.5,19.6-27.5,34.4-36.1c14.8-8.6,32.3-12.9,52.4-12.9c14.2,0,27.2,2.2,39,6.6
			c11.8,4.4,22,11,30.5,19.6c8.6,8.7,15.2,19.3,20,32s7.1,27.2,7.1,43.6v15.9H698v-36.9h114.4c-0.1-6.8-1.7-12.8-4.8-18.1
			s-7.4-9.4-12.8-12.4s-11.6-4.5-18.6-4.5c-7.1,0-13.5,1.6-19.1,4.7c-5.6,3.2-10.1,7.5-13.4,12.9c-3.3,5.4-5,11.5-5.2,18.4v37.6
			c0,8.1,1.6,15.3,4.8,21.4c3.2,6.1,7.8,10.9,13.6,14.2c5.9,3.4,12.9,5.1,21.1,5.1c5.6,0,10.7-0.8,15.3-2.3
			c4.6-1.6,8.5-3.9,11.8-6.9s5.8-6.8,7.4-11.2l58.3,1.7c-2.4,13.1-7.7,24.5-15.9,34.1c-8.2,9.7-18.9,17.2-32.2,22.5
			C809.5-13393.1,794.2-13390.4,776.8-13390.4z"/>
		<path class="st0" d="M904.1-13394.2v-199.6h61.7v36.4h2.1c3.6-13.2,9.6-23,17.8-29.4c8.2-6.5,17.8-9.7,28.7-9.7
			c2.9,0,6,0.2,9.1,0.6c3.1,0.4,6,1,8.7,1.8v55.2c-3-1-7-1.9-11.9-2.5s-9.2-0.9-13.1-0.9c-7.5,0-14.3,1.7-20.3,5s-10.7,8-14.2,13.9
			c-3.4,5.9-5.1,12.9-5.1,20.9v108.4L904.1-13394.2L904.1-13394.2z"/>
	</g>
</g>
<g>
	<g>
		<path class="st0" d="M-3924.5-12908.1v-266.1h181.7v52.2h-117.4v54.6h105.8v52.4h-105.8v106.9L-3924.5-12908.1L-3924.5-12908.1z"
			/>
		<path class="st0" d="M-3617.4-12904.3c-21,0-39-4.3-54-12.9c-15-8.6-26.6-20.7-34.7-36.1c-8.1-15.5-12.2-33.4-12.2-53.9
			s4-38.5,12.2-54c8.1-15.5,19.7-27.5,34.7-36.1s33-12.9,54-12.9s39,4.3,54,12.9c15,8.6,26.6,20.7,34.7,36.1
			c8.1,15.5,12.2,33.5,12.2,54c0,20.4-4.1,38.4-12.2,53.9c-8.1,15.5-19.7,27.5-34.7,36.1
			C-3578.5-12908.6-3596.5-12904.3-3617.4-12904.3z M-3617-12952.2c7.6,0,14.1-2.3,19.4-7c5.3-4.7,9.3-11.2,12.2-19.5
			c2.8-8.3,4.2-17.9,4.2-28.8c0-11.1-1.4-20.8-4.2-29.1s-6.9-14.8-12.2-19.5s-11.7-7-19.4-7c-7.9,0-14.5,2.3-19.9,7
			s-9.5,11.2-12.3,19.5s-4.2,18-4.2,29.1c0,10.9,1.4,20.5,4.2,28.8s6.9,14.8,12.3,19.5C-3631.6-12954.6-3624.9-12952.2-3617-12952.2
			z"/>
		<path class="st0" d="M-3420.4-13021.9v113.8h-63.5v-199.6h60.4v36.6h2.2c4.4-12.2,12-21.8,22.6-28.8c10.7-7,23.3-10.5,38.1-10.5
			c14,0,26.2,3.1,36.6,9.4c10.4,6.3,18.4,15,24.2,26.2s8.6,24.3,8.5,39.3v127.2h-63.5v-114.7c0.1-11.1-2.7-19.8-8.4-26
			s-13.5-9.4-23.6-9.4c-6.7,0-12.5,1.5-17.6,4.4s-9,7-11.7,12.4C-3418.9-13036-3420.3-13029.5-3420.4-13021.9z"/>
		<path class="st0" d="M-3139.2-13107.7v46.8h-125.9v-46.8H-3139.2z M-3238.8-13155.5h63.5v184.7c0,3.9,0.6,7,1.9,9.4
			c1.3,2.4,3.1,4.1,5.5,5.1s5.3,1.5,8.7,1.5c2.4,0,5-0.2,7.7-0.7s4.8-0.9,6.2-1.2l9.6,45.9c-3,0.9-7.3,1.9-12.8,3.2
			s-12.1,2.1-19.7,2.5c-14.9,0.7-27.7-1.1-38.3-5.3s-18.7-10.8-24.3-19.7s-8.3-20.1-8.1-33.7v-191.7H-3238.8z"/>
		<path class="st0" d="M-2867-13174.2h64.2v171.7c0,19.8-4.7,37.1-14.2,51.8c-9.4,14.7-22.6,26-39.5,34s-36.5,12-58.9,12
			c-22.6,0-42.4-4-59.3-12c-16.9-8-30-19.4-39.4-34c-9.4-14.7-14-31.9-14-51.8v-171.7h64.3v166.1c0,9.2,2,17.4,6,24.6
			s9.7,12.8,17,16.9c7.3,4.1,15.7,6.1,25.3,6.1s18-2,25.3-6.1c7.2-4.1,12.9-9.7,17-16.9s6.1-15.4,6.1-24.6L-2867-13174.2
			L-2867-13174.2z"/>
		<path class="st0" d="M-2588.2-13046.7l-58.3,1.6c-0.6-4.2-2.3-7.9-4.9-11.1c-2.7-3.2-6.2-5.8-10.5-7.7s-9.2-2.8-14.9-2.8
			c-7.4,0-13.6,1.5-18.8,4.4s-7.7,6.9-7.6,12c-0.1,3.9,1.5,7.3,4.7,10.1c3.2,2.9,9.1,5.2,17.5,6.9l38.5,7.3
			c19.9,3.8,34.8,10.1,44.5,19c9.7,8.8,14.7,20.5,14.7,35.1c-0.1,13.7-4.1,25.6-12.2,35.7c-8,10.1-19,18-32.8,23.6
			c-13.9,5.6-29.7,8.4-47.6,8.4c-28.5,0-51-5.9-67.4-17.6c-16.4-11.7-25.8-27.5-28.1-47.2l62.8-1.6c1.4,7.3,5,12.8,10.8,16.6
			s13.2,5.7,22.2,5.7c8.1,0,14.8-1.5,19.9-4.5c5.1-3,7.7-7.1,7.8-12.1c-0.1-4.5-2.1-8.1-6-10.9c-3.9-2.8-10-4.9-18.3-6.4l-34.8-6.6
			c-20-3.6-34.9-10.4-44.7-20.2s-14.6-22.4-14.6-37.6c-0.1-13.3,3.5-24.8,10.7-34.2c7.2-9.5,17.4-16.7,30.7-21.8
			c13.3-5,28.9-7.5,46.9-7.5c27,0,48.3,5.7,63.9,17C-2598.5-13082-2589.9-13066.5-2588.2-13046.7z"/>
		<path class="st0" d="M-2458.8-12904.3c-20.9,0-38.9-4.1-54-12.4c-15.1-8.3-26.7-20.1-34.8-35.5s-12.2-33.7-12.2-54.9
			c0-20.6,4.1-38.7,12.2-54.1c8.1-15.5,19.6-27.5,34.4-36.1c14.8-8.6,32.3-12.9,52.4-12.9c14.2,0,27.2,2.2,39,6.6
			c11.8,4.4,22,11,30.5,19.6c8.6,8.7,15.2,19.3,20,32s7.1,27.2,7.1,43.6v15.9h-173.5v-36.9h114.4c-0.1-6.8-1.7-12.8-4.8-18.1
			s-7.4-9.4-12.8-12.4c-5.4-3-11.6-4.5-18.6-4.5c-7.1,0-13.5,1.6-19.1,4.7c-5.6,3.2-10.1,7.5-13.4,12.9c-3.3,5.4-5,11.5-5.2,18.4
			v37.6c0,8.1,1.6,15.3,4.8,21.4c3.2,6.1,7.8,10.9,13.6,14.2c5.9,3.4,12.9,5.1,21.1,5.1c5.6,0,10.7-0.8,15.3-2.3
			c4.6-1.6,8.5-3.9,11.8-6.9s5.8-6.8,7.4-11.2l58.3,1.7c-2.4,13.1-7.7,24.5-15.9,34.1c-8.2,9.7-18.9,17.2-32.2,22.5
			C-2426.1-12907-2441.4-12904.3-2458.8-12904.3z"/>
		<path class="st0" d="M-2258.6-12905.2c-14.7,0-28.1-3.8-40.2-11.4c-12-7.6-21.7-19.1-28.8-34.3c-7.2-15.2-10.8-34.2-10.8-56.8
			c0-23.5,3.7-42.8,11.2-58c7.4-15.2,17.2-26.4,29.3-33.7s25.1-10.9,39-10.9c10.5,0,19.4,1.8,26.9,5.4c7.5,3.6,13.6,8.2,18.5,13.8
			s8.5,11.5,11,17.5h1.3v-100.7h63.5v266.1h-62.9v-32.4h-1.9c-2.7,6.2-6.5,11.9-11.4,17.3c-4.9,5.4-11.1,9.7-18.5,13
			S-2248.5-12905.2-2258.6-12905.2z M-2236.5-12954.7c7.7,0,14.3-2.2,19.8-6.6c5.5-4.4,9.7-10.5,12.6-18.5c2.9-8,4.4-17.3,4.4-28.1
			c0-10.9-1.5-20.3-4.4-28.2s-7.1-13.9-12.6-18.2c-5.5-4.2-12.1-6.4-19.8-6.4c-7.9,0-14.6,2.2-20,6.5c-5.5,4.3-9.6,10.4-12.4,18.3
			c-2.8,7.9-4.2,17.2-4.2,27.9s1.4,20.1,4.3,28.1c2.9,8,7,14.1,12.4,18.5C-2251-12956.9-2244.4-12954.7-2236.5-12954.7z"/>
		<path class="st0" d="M-1925.4-12904.3c-21,0-39-4.3-54-12.9c-15-8.6-26.6-20.7-34.7-36.1c-8.1-15.5-12.1-33.4-12.1-53.9
			s4-38.5,12.1-54s19.7-27.5,34.7-36.1s33-12.9,54-12.9s39,4.3,54,12.9c15,8.6,26.6,20.7,34.7,36.1c8.1,15.5,12.2,33.5,12.2,54
			c0,20.4-4.1,38.4-12.2,53.9s-19.7,27.5-34.7,36.1C-1886.4-12908.6-1904.4-12904.3-1925.4-12904.3z M-1925-12952.2
			c7.6,0,14.1-2.3,19.4-7c5.3-4.7,9.3-11.2,12.2-19.5c2.8-8.3,4.2-17.9,4.2-28.8c0-11.1-1.4-20.8-4.2-29.1s-6.9-14.8-12.2-19.5
			s-11.7-7-19.4-7c-7.9,0-14.5,2.3-19.9,7s-9.5,11.2-12.3,19.5s-4.2,18-4.2,29.1c0,10.9,1.4,20.5,4.2,28.8s6.9,14.8,12.3,19.5
			C-1939.5-12954.6-1932.9-12952.2-1925-12952.2z"/>
		<path class="st0" d="M-1728.4-13021.9v113.8h-63.5v-199.6h60.4v36.6h2.2c4.4-12.2,12-21.8,22.6-28.8c10.7-7,23.3-10.5,38.1-10.5
			c14,0,26.2,3.1,36.6,9.4c10.4,6.3,18.4,15,24.2,26.2s8.6,24.3,8.5,39.3v127.2h-63.5v-114.7c0.1-11.1-2.7-19.8-8.4-26
			s-13.5-9.4-23.6-9.4c-6.7,0-12.5,1.5-17.6,4.4s-9,7-11.7,12.4C-1726.9-13036-1728.3-13029.5-1728.4-13021.9z"/>
		<path class="st0" d="M-1481.1-12908.1v-266.1h64.3v213.9h110.7v52.2L-1481.1-12908.1L-1481.1-12908.1z"/>
		<path class="st0" d="M-1179.6-12904.3c-21,0-39-4.3-54-12.9c-15-8.6-26.6-20.7-34.7-36.1c-8.1-15.5-12.1-33.4-12.1-53.9
			s4-38.5,12.1-54s19.7-27.5,34.7-36.1s33-12.9,54-12.9s39,4.3,54,12.9c15,8.6,26.6,20.7,34.7,36.1c8.1,15.5,12.2,33.5,12.2,54
			c0,20.4-4.1,38.4-12.2,53.9s-19.7,27.5-34.7,36.1S-1158.6-12904.3-1179.6-12904.3z M-1179.2-12952.2c7.6,0,14.1-2.3,19.4-7
			s9.3-11.2,12.2-19.5c2.8-8.3,4.2-17.9,4.2-28.8c0-11.1-1.4-20.8-4.2-29.1s-6.9-14.8-12.2-19.5s-11.7-7-19.4-7
			c-7.9,0-14.5,2.3-19.9,7s-9.5,11.2-12.3,19.5s-4.2,18-4.2,29.1c0,10.9,1.4,20.5,4.2,28.8s6.9,14.8,12.3,19.5
			C-1193.7-12954.6-1187.1-12952.2-1179.2-12952.2z"/>
		<path class="st0" d="M-953.1-12829c-19,0-35.2-2.6-48.7-7.9s-24.1-12.5-31.8-21.7s-12.3-19.6-13.9-31.2l60.2-3.4
			c1.1,4.1,3.2,7.6,6.3,10.7c3.1,3,7.1,5.4,12.1,7s10.9,2.5,17.6,2.5c10.7,0,19.5-2.6,26.4-7.7c7-5.2,10.5-14.1,10.5-27v-35.1h-2.2
			c-2.5,6.2-6.3,11.7-11.4,16.5c-5.1,4.9-11.5,8.7-19,11.4c-7.6,2.8-16.3,4.2-26.1,4.2c-14.6,0-27.9-3.4-40-10.2s-21.7-17.4-29-31.7
			c-7.2-14.3-10.9-32.8-10.9-55.4c0-23.3,3.7-42.5,11.2-57.6c7.4-15.1,17.2-26.3,29.3-33.6c12.1-7.3,25.1-10.9,39-10.9
			c10.5,0,19.5,1.8,27,5.4c7.5,3.6,13.7,8.2,18.5,13.8c4.9,5.6,8.5,11.5,11,17.5h1.8v-34.2h63.3v200.4c0,16.9-4.2,31.1-12.7,42.8
			c-8.5,11.6-20.4,20.4-35.6,26.4C-915.5-12832.1-933.1-12829-953.1-12829z M-951.2-12957c7.7,0,14.3-2,19.8-6.1s9.7-9.9,12.6-17.5
			s4.4-16.8,4.4-27.4c0-10.8-1.5-20.2-4.4-28s-7.1-13.9-12.6-18.1s-12.1-6.4-19.8-6.4c-7.9,0-14.6,2.2-20,6.5
			c-5.5,4.3-9.6,10.4-12.4,18.3c-2.8,7.8-4.2,17.1-4.2,27.7c0,10.6,1.4,19.8,4.3,27.4c2.9,7.6,7,13.5,12.4,17.5
			S-959-12957-951.2-12957z"/>
		<path class="st0" d="M-718.3-12904.3c-21,0-39-4.3-54-12.9c-15-8.6-26.6-20.7-34.7-36.1c-8.1-15.5-12.1-33.4-12.1-53.9
			s4-38.5,12.1-54s19.7-27.5,34.7-36.1s33-12.9,54-12.9s39,4.3,54,12.9c15,8.6,26.6,20.7,34.7,36.1c8.1,15.5,12.2,33.5,12.2,54
			c0,20.4-4.1,38.4-12.2,53.9c-8.1,15.5-19.7,27.5-34.7,36.1S-697.3-12904.3-718.3-12904.3z M-717.9-12952.2c7.6,0,14.1-2.3,19.4-7
			c5.3-4.7,9.3-11.2,12.2-19.5c2.8-8.3,4.2-17.9,4.2-28.8c0-11.1-1.4-20.8-4.2-29.1s-6.9-14.8-12.2-19.5s-11.7-7-19.4-7
			c-7.9,0-14.5,2.3-19.9,7s-9.5,11.2-12.3,19.5s-4.2,18-4.2,29.1c0,10.9,1.4,20.5,4.2,28.8s6.9,14.8,12.3,19.5
			C-732.4-12954.6-725.8-12952.2-717.9-12952.2z"/>
		<path class="st0" d="M-470.3-13041.3c-9.4,0-17.3-3.3-24-9.8c-6.6-6.5-9.9-14.5-9.8-24c-0.1-9.2,3.2-17,9.8-23.6
			c6.6-6.5,14.6-9.8,24-9.8c8.8,0,16.7,3.3,23.5,9.8s10.2,14.4,10.3,23.6c-0.1,6.2-1.7,11.9-4.9,17s-7.3,9.2-12.3,12.2
			C-458.8-13042.8-464.4-13041.3-470.3-13041.3z M-470.3-12904.3c-9.4,0-17.3-3.3-24-9.9c-6.6-6.6-9.9-14.6-9.8-23.9
			c-0.1-9.2,3.2-17,9.8-23.6c6.6-6.5,14.6-9.8,24-9.8c8.8,0,16.7,3.3,23.5,9.8s10.2,14.4,10.3,23.6c-0.1,6.2-1.7,11.9-4.9,17
			s-7.3,9.2-12.3,12.2C-458.8-12905.8-464.4-12904.3-470.3-12904.3z"/>
		<path class="st0" d="M-251.4-13174.2v266.1h-64.3v-266.1H-251.4z"/>
		<path class="st0" d="M-147.6-13021.9v113.8h-63.5v-199.6h60.4v36.6h2.2c4.4-12.2,12-21.8,22.6-28.8c10.7-7,23.3-10.5,38.1-10.5
			c14,0,26.2,3.1,36.6,9.4s18.4,15,24.2,26.2s8.6,24.3,8.5,39.3v127.2H-82v-114.7c0.1-11.1-2.7-19.8-8.4-26
			c-5.7-6.2-13.5-9.4-23.6-9.4c-6.7,0-12.5,1.5-17.6,4.4s-9,7-11.7,12.4C-146.1-13036-147.5-13029.5-147.6-13021.9z"/>
		<path class="st0" d="M133.7-13107.7v46.8H7.7v-46.8H133.7z M34.1-13155.5h63.5v184.7c0,3.9,0.6,7,1.9,9.4s3.1,4.1,5.5,5.1
			s5.3,1.5,8.7,1.5c2.4,0,5-0.2,7.7-0.7s4.8-0.9,6.2-1.2l9.6,45.9c-3,0.9-7.3,1.9-12.8,3.2s-12.1,2.1-19.7,2.5
			c-14.9,0.7-27.7-1.1-38.3-5.3s-18.7-10.8-24.3-19.7s-8.3-20.1-8.1-33.7L34.1-13155.5L34.1-13155.5z"/>
		<path class="st0" d="M259.4-12904.3c-20.9,0-38.9-4.1-54-12.4c-15.1-8.3-26.7-20.1-34.8-35.5c-8.1-15.4-12.1-33.7-12.1-54.9
			c0-20.6,4.1-38.7,12.2-54.1c8.1-15.5,19.6-27.5,34.4-36.1c14.8-8.6,32.3-12.9,52.4-12.9c14.2,0,27.2,2.2,39,6.6
			c11.8,4.4,22,11,30.5,19.6c8.6,8.7,15.2,19.3,20,32s7.1,27.2,7.1,43.6v15.9H180.7v-36.9h114.4c-0.1-6.8-1.7-12.8-4.8-18.1
			c-3.1-5.3-7.4-9.4-12.8-12.4c-5.4-3-11.6-4.5-18.6-4.5c-7.1,0-13.5,1.6-19.1,4.7c-5.6,3.2-10.1,7.5-13.4,12.9s-5,11.5-5.2,18.4
			v37.6c0,8.1,1.6,15.3,4.8,21.4c3.2,6.1,7.8,10.9,13.6,14.2c5.9,3.4,12.9,5.1,21.1,5.1c5.6,0,10.7-0.8,15.3-2.3
			c4.6-1.6,8.5-3.9,11.8-6.9c3.3-3,5.8-6.8,7.4-11.2l58.3,1.7c-2.4,13.1-7.7,24.5-15.9,34.1c-8.2,9.7-18.9,17.2-32.2,22.5
			C292.1-12906.9,276.9-12904.3,259.4-12904.3z"/>
		<path class="st0" d="M386.8-12908.1v-199.6h61.7v36.4h2.1c3.6-13.2,9.6-23,17.8-29.4c8.2-6.5,17.8-9.7,28.7-9.7
			c2.9,0,6,0.2,9.1,0.6c3.1,0.4,6,1,8.7,1.8v55.2c-3-1-7-1.9-11.9-2.5s-9.2-0.9-13.1-0.9c-7.5,0-14.3,1.7-20.3,5s-10.7,8-14.2,13.9
			c-3.4,5.9-5.1,12.9-5.1,20.9v108.4L386.8-12908.1L386.8-12908.1z"/>
		<path class="st0" d="M720.4-12908.1v-325.3h226.8v63.8H799v66.7h136.6v64H799v66.9h148.2v63.8L720.4-12908.1L720.4-12908.1z"/>
		<path class="st0" d="M1062.5-13152l40.2,80.4l41.6-80.4h78.3l-68.1,122l70.7,122h-77.7l-44.8-81l-43.7,81h-78.8l70.8-122
			l-67.3-122H1062.5z"/>
		<path class="st0" d="M1395.8-13152v57.2h-153.9v-57.2H1395.8z M1274.2-13210.4h77.7v225.7c0,4.8,0.8,8.6,2.3,11.5s3.8,5,6.8,6.2
			s6.5,1.8,10.6,1.8c3,0,6.1-0.3,9.5-0.9c3.3-0.6,5.8-1.1,7.5-1.5l11.8,56.1c-3.7,1.1-8.9,2.4-15.6,4s-14.7,2.6-24.1,3
			c-18.2,0.8-33.8-1.3-46.8-6.4c-13-5.1-22.9-13.2-29.7-24.1c-6.8-10.9-10.1-24.6-9.9-41.1L1274.2-13210.4L1274.2-13210.4z"/>
		<path class="st0" d="M1435.5-12908.1v-243.9h75.4v44.5h2.5c4.4-16.1,11.7-28.1,21.8-36c10.1-7.9,21.8-11.8,35.1-11.8
			c3.6,0,7.3,0.2,11.1,0.7s7.4,1.2,10.6,2.1v67.5c-3.7-1.3-8.6-2.3-14.5-3c-6-0.7-11.3-1.1-16-1.1c-9.2,0-17.5,2-24.9,6.1
			s-13.1,9.7-17.3,17c-4.2,7.3-6.3,15.8-6.3,25.5v132.5L1435.5-12908.1L1435.5-12908.1L1435.5-12908.1z"/>
		<path class="st0" d="M1692.7-12903.9c-15.6,0-29.4-2.6-41.4-7.9c-12-5.2-21.5-13.2-28.4-23.8s-10.4-24-10.4-40.1
			c0-13.6,2.4-25,7.1-34.3c4.8-9.3,11.3-16.9,19.7-22.7c8.4-5.8,18-10.2,28.9-13.3c10.9-3,22.6-5.1,34.9-6.1
			c13.9-1.3,25-2.6,33.5-4.1c8.5-1.4,14.6-3.5,18.5-6.2s5.8-6.5,5.8-11.5v-0.8c0-8.2-2.8-14.5-8.4-18.9s-13.2-6.7-22.7-6.7
			c-10.3,0-18.5,2.2-24.8,6.7c-6.2,4.4-10.2,10.6-11.9,18.4l-71.6-2.5c2.1-14.8,7.6-28.1,16.4-39.8s21-20.9,36.5-27.6
			s34.2-10.1,56-10.1c15.6,0,29.9,1.8,43,5.5s24.6,8.9,34.3,15.9c9.7,6.9,17.3,15.4,22.6,25.5c5.3,10.1,8,21.5,8,34.5v165.8h-73.1
			v-34h-1.9c-4.3,8.3-9.9,15.2-16.6,21c-6.7,5.7-14.6,10-23.7,12.9C1714.2-12905.4,1704-12903.9,1692.7-12903.9z M1716.6-12954.8
			c8.4,0,15.9-1.7,22.6-5.1c6.7-3.4,12.1-8.1,16.1-14.1s6-12.9,6-20.9v-23.2c-2.2,1.2-4.9,2.2-8,3.2s-6.5,1.9-10.2,2.7
			s-7.5,1.6-11.4,2.2c-3.9,0.6-7.7,1.2-11.3,1.7c-7.3,1.2-13.5,3-18.7,5.4c-5.1,2.4-9.1,5.6-11.8,9.4c-2.7,3.9-4,8.4-4,13.7
			c0,8,2.9,14.2,8.7,18.4C1700.4-12956.9,1707.7-12954.8,1716.6-12954.8z"/>
		<path class="st0" d="M1885.8-12908.1v-325.3h135.6c24.4,0,44.8,3.4,61.2,10.3c16.5,6.9,28.9,16.5,37.2,28.9
			c8.3,12.4,12.5,26.7,12.5,43c0,12.4-2.6,23.4-7.8,33.1c-5.2,9.7-12.3,17.7-21.4,24.1c-9.1,6.4-19.6,10.8-31.6,13.3v3.2
			c13.1,0.6,25.3,4.2,36.4,10.6c11.2,6.5,20.1,15.4,26.9,26.9c6.8,11.5,10.2,25.1,10.2,40.7c0,17.5-4.4,33.1-13.3,46.8
			c-8.9,13.7-21.8,24.5-38.6,32.4s-37.3,11.8-61.3,11.8h-146L1885.8-12908.1L1885.8-12908.1z M1964.4-13099.6h43.5
			c8.6,0,16.2-1.4,22.9-4.3c6.7-2.9,11.9-7,15.6-12.4c3.8-5.4,5.6-11.9,5.6-19.5c0-10.9-3.9-19.5-11.6-25.7
			c-7.7-6.2-18.2-9.4-31.3-9.4h-44.8L1964.4-13099.6L1964.4-13099.6z M1964.4-12971.4h48.6c17,0,29.6-3.2,37.7-9.7
			c8.1-6.5,12.1-15.5,12.1-27c0-8.4-2-15.6-5.9-21.7c-3.9-6.1-9.5-10.8-16.7-14.1s-15.8-5-25.9-5h-50L1964.4-12971.4L1964.4-12971.4
			z"/>
		<path class="st0" d="M2296.6-12903.5c-25.6,0-47.6-5.3-66-15.8s-32.5-25.3-42.4-44.2c-9.9-18.9-14.8-40.8-14.8-65.8
			c0-25.1,4.9-47.1,14.8-66c9.9-18.9,24-33.6,42.4-44.2c18.4-10.5,40.4-15.8,66-15.8s47.6,5.3,66,15.8s32.5,25.3,42.4,44.2
			s14.8,40.9,14.8,66c0,25-5,46.9-14.8,65.8c-9.9,18.9-24,33.6-42.4,44.2C2344.3-12908.7,2322.3-12903.5,2296.6-12903.5z
			 M2297.1-12962.1c9.3,0,17.2-2.9,23.7-8.6s11.4-13.7,14.8-23.8c3.4-10.2,5.2-21.9,5.2-35.3c0-13.6-1.7-25.4-5.2-35.6
			c-3.4-10.2-8.4-18.1-14.8-23.8c-6.5-5.7-14.3-8.6-23.7-8.6c-9.6,0-17.8,2.9-24.4,8.6s-11.6,13.7-15.1,23.8
			c-3.4,10.2-5.2,22-5.2,35.6c0,13.3,1.7,25.1,5.2,35.3c3.4,10.2,8.5,18.1,15.1,23.8C2279.4-12964.9,2287.5-12962.1,2297.1-12962.1z
			"/>
		<path class="st0" d="M2537.4-13233.3v325.3h-77.7v-325.3H2537.4z"/>
		<path class="st0" d="M2675.7-12904.6c-18,0-34.4-4.7-49.1-14s-26.5-23.3-35.3-41.9c-8.8-18.6-13.2-41.8-13.2-69.4
			c0-28.7,4.6-52.3,13.7-70.8s21-32.2,35.8-41.1c14.8-8.9,30.7-13.3,47.7-13.3c12.8,0,23.8,2.2,32.9,6.6c9.1,4.4,16.6,10,22.6,16.9
			c5.9,6.9,10.4,14,13.5,21.4h1.6v-123.1h77.7v325.3h-76.9v-39.5h-2.4c-3.3,7.5-7.9,14.6-14,21.1c-6,6.6-13.6,11.9-22.6,15.9
			C2698.7-12906.6,2688-12904.6,2675.7-12904.6z M2702.7-12965.1c9.4,0,17.5-2.7,24.1-8c6.7-5.3,11.8-12.9,15.4-22.6
			s5.4-21.2,5.4-34.3c0-13.3-1.8-24.8-5.3-34.5c-3.5-9.6-8.7-17-15.4-22.2s-14.8-7.8-24.2-7.8c-9.6,0-17.8,2.6-24.5,7.9
			s-11.7,12.8-15.2,22.4c-3.4,9.6-5.2,21-5.2,34.1s1.7,24.6,5.2,34.3s8.5,17.3,15.2,22.6
			C2685-12967.7,2693.1-12965.1,2702.7-12965.1z"/>
	</g>
</g>
<g>
	<g>
		<path class="st0" d="M-2138.2-12466.2v-266.1h181.7v52.2h-117.3v54.6h105.8v52.4h-105.8v106.9L-2138.2-12466.2L-2138.2-12466.2z"
			/>
		<path class="st0" d="M-1831.1-12462.4c-21,0-39-4.3-54-12.9c-15-8.6-26.6-20.7-34.7-36.1c-8.1-15.5-12.2-33.4-12.2-53.9
			s4-38.5,12.2-54c8.1-15.5,19.7-27.5,34.7-36.1s33-12.9,54-12.9s39,4.3,54,12.9c15,8.6,26.6,20.7,34.7,36.1
			c8.1,15.5,12.2,33.5,12.2,54c0,20.4-4.1,38.4-12.2,53.9s-19.7,27.5-34.7,36.1C-1792.1-12466.7-1810.1-12462.4-1831.1-12462.4z
			 M-1830.7-12510.4c7.6,0,14.1-2.3,19.4-7s9.3-11.2,12.2-19.5c2.8-8.3,4.2-17.9,4.2-28.8c0-11.1-1.4-20.8-4.2-29.1
			s-6.9-14.8-12.2-19.5s-11.7-7-19.4-7c-7.9,0-14.5,2.3-19.9,7s-9.5,11.2-12.3,19.5s-4.2,18-4.2,29.1c0,10.9,1.4,20.5,4.2,28.8
			s6.9,14.8,12.3,19.5C-1845.3-12512.7-1838.6-12510.4-1830.7-12510.4z"/>
		<path class="st0" d="M-1634.1-12580v113.8h-63.5v-199.6h60.4v36.6h2.2c4.4-12.2,12-21.8,22.6-28.8c10.7-7,23.3-10.5,38.1-10.5
			c14,0,26.2,3.1,36.6,9.4c10.4,6.3,18.4,15,24.2,26.2s8.6,24.3,8.5,39.3v127.2h-63.5v-114.5c0.1-11.1-2.7-19.8-8.4-26
			s-13.5-9.4-23.6-9.4c-6.7,0-12.5,1.5-17.6,4.4s-9,7-11.7,12.4C-1632.6-12594.1-1634-12587.6-1634.1-12580z"/>
		<path class="st0" d="M-1352.9-12665.8v46.8h-125.9v-46.8H-1352.9z M-1452.4-12713.6h63.5v184.7c0,3.9,0.6,7,1.9,9.4
			s3.1,4.1,5.5,5.1s5.3,1.5,8.7,1.5c2.4,0,5-0.2,7.7-0.7s4.8-0.9,6.2-1.2l9.6,45.9c-3,0.9-7.3,1.9-12.8,3.2s-12.1,2.1-19.7,2.5
			c-14.9,0.7-27.7-1.1-38.3-5.3c-10.6-4.2-18.7-10.8-24.3-19.7s-8.3-20.1-8.1-33.7v-191.7H-1452.4z"/>
		<path class="st0" d="M-1097.8-12652.5c-0.9-9.5-4.7-17-11.5-22.3s-16.5-8-29-8c-8.3,0-15.2,1.1-20.8,3.2
			c-5.5,2.2-9.7,5.1-12.5,8.9s-4.2,8.1-4.3,12.9c-0.2,4,0.6,7.5,2.4,10.5s4.4,5.7,7.8,8s7.6,4.3,12.4,6c4.9,1.7,10.3,3.2,16.4,4.5
			l22.9,5.2c13.2,2.9,24.8,6.7,34.9,11.4c10.1,4.8,18.6,10.4,25.5,17s12.1,14.2,15.7,22.7c3.6,8.6,5.4,18.2,5.5,28.8
			c-0.1,16.8-4.3,31.2-12.7,43.3c-8.4,12-20.5,21.3-36.2,27.7s-34.7,9.6-56.9,9.6c-22.3,0-41.7-3.3-58.2-10s-29.4-16.8-38.6-30.4
			c-9.2-13.6-13.9-30.8-14.2-51.6h61.6c0.5,8.6,2.8,15.7,6.9,21.4s9.7,10.1,16.8,13c7.1,2.9,15.4,4.4,24.9,4.4
			c8.7,0,16-1.2,22.2-3.5c6.1-2.3,10.8-5.6,14.1-9.7c3.3-4.2,5-8.9,5.1-14.3c-0.1-5-1.6-9.3-4.7-12.9c-3-3.6-7.7-6.7-14-9.4
			c-6.3-2.6-14.3-5.1-24-7.3l-27.8-6.5c-23-5.3-41.2-13.8-54.4-25.7c-13.3-11.8-19.8-27.8-19.8-48c-0.1-16.5,4.3-30.9,13.3-43.3
			c8.9-12.4,21.3-22,37-29c15.8-6.9,33.7-10.4,53.9-10.4c20.6,0,38.5,3.5,53.7,10.5s27,16.7,35.4,29.3s12.7,27.1,12.9,43.7h-61.7
			L-1097.8-12652.5L-1097.8-12652.5z"/>
		<path class="st0" d="M-968-12689c-9,0-16.7-3-23.1-8.9s-9.6-13.1-9.6-21.5c0-8.3,3.2-15.4,9.6-21.4c6.4-5.9,14.1-8.9,23-8.9
			c9,0,16.7,3,23.1,8.9s9.6,13.1,9.6,21.5c0,8.3-3.2,15.4-9.6,21.4C-951.4-12692-959.1-12689-968-12689z M-1000-12466.2v-199.6h63.5
			v199.6H-1000z"/>
		<path class="st0" d="M-895.6-12466.2v-36.3l92.5-112.7v-1.3h-89.3v-49.4h165v39.8l-85.8,109.2v1.3h88.9v49.4H-895.6z"/>
		<path class="st0" d="M-589.8-12462.4c-20.9,0-38.9-4.1-54-12.4s-26.7-20.1-34.8-35.5s-12.1-33.7-12.1-54.9
			c0-20.6,4.1-38.7,12.2-54.1c8.1-15.5,19.6-27.5,34.4-36.1c14.8-8.6,32.3-12.9,52.4-12.9c14.2,0,27.2,2.2,39,6.6
			c11.8,4.4,22,11,30.5,19.6c8.6,8.7,15.2,19.3,20,32s7.1,27.2,7.1,43.6v15.9h-173.5v-36.9h114.4c-0.1-6.8-1.7-12.8-4.8-18.1
			s-7.4-9.4-12.8-12.4c-5.4-3-11.6-4.5-18.6-4.5c-7.1,0-13.5,1.6-19.1,4.7c-5.6,3.2-10.1,7.5-13.4,12.9c-3.3,5.4-5,11.5-5.2,18.4
			v37.6c0,8.1,1.6,15.3,4.8,21.4c3.2,6.1,7.8,10.9,13.6,14.2c5.9,3.4,12.9,5.1,21.1,5.1c5.6,0,10.7-0.8,15.3-2.3
			c4.6-1.6,8.5-3.9,11.8-6.9s5.8-6.8,7.4-11.2l58.3,1.7c-2.4,13.1-7.7,24.5-15.9,34.1c-8.2,9.7-18.9,17.2-32.2,22.5
			C-557.1-12465.1-572.4-12462.4-589.8-12462.4z"/>
		<path class="st0" d="M-348-12599.4c-9.4,0-17.3-3.3-24-9.8c-6.6-6.5-9.9-14.5-9.8-24c-0.1-9.2,3.2-17,9.8-23.6
			c6.6-6.5,14.6-9.8,24-9.8c8.8,0,16.7,3.3,23.5,9.8s10.2,14.4,10.3,23.6c-0.1,6.2-1.7,11.9-4.9,17c-3.2,5.1-7.3,9.2-12.3,12.2
			C-336.5-12600.9-342-12599.4-348-12599.4z M-348-12462.4c-9.4,0-17.3-3.3-24-9.9c-6.6-6.6-9.9-14.6-9.8-23.9
			c-0.1-9.2,3.2-17,9.8-23.6c6.6-6.5,14.6-9.8,24-9.8c8.8,0,16.7,3.3,23.5,9.8s10.2,14.4,10.3,23.6c-0.1,6.2-1.7,11.9-4.9,17
			c-3.2,5.1-7.3,9.2-12.3,12.2C-336.5-12463.9-342-12462.4-348-12462.4z"/>
		<path class="st0" d="M-182.6-12466.2l107.3-212.6v-1.7h-125.5v-51.9H-8.7v52.2l-107.7,213.9L-182.6-12466.2L-182.6-12466.2z"/>
		<path class="st0" d="M126.9-12736c14.6,0,28.5,2.4,41.7,7.1c13.3,4.7,25.1,12.2,35.5,22.5c10.4,10.3,18.6,23.8,24.6,40.5
			s9,37.1,9,61.2c0.1,22.2-2.5,42-7.8,59.6c-5.3,17.5-12.8,32.5-22.7,44.8c-9.8,12.3-21.6,21.7-35.4,28.1
			c-13.8,6.5-29.2,9.7-46.1,9.7c-18.7,0-35.2-3.6-49.4-10.9c-14.3-7.2-25.6-17-34.2-29.3c-8.5-12.3-13.6-26.1-15.3-41.3h63.3
			c2,8.8,6.2,15.5,12.6,19.9c6.4,4.5,14.1,6.7,23,6.7c16.3,0,28.5-7.1,36.5-21.2c8.1-14.1,12.1-33.3,12.1-57.6h-1.6
			c-3.7,8-9,14.8-15.8,20.5c-6.8,5.7-14.7,10.1-23.6,13.1c-8.9,3-18.3,4.5-28.2,4.5c-15.9,0-30-3.6-42.2-10.9s-21.7-17.3-28.6-30
			s-10.4-27.3-10.5-43.7c-0.1-18.4,4.2-34.6,12.9-48.7c8.7-14.1,20.7-25.1,36.3-33C88.5-12732.1,106.5-12736,126.9-12736z
			 M127.3-12686.6c-8,0-15.1,1.9-21.2,5.6c-6.2,3.7-11.1,8.8-14.6,15.1c-3.6,6.3-5.3,13.4-5.2,21.3c0.1,7.9,1.9,15,5.4,21.3
			s8.3,11.4,14.4,15.1s13.1,5.6,21,5.6c5.9,0,11.3-1.1,16.4-3.2c5-2.2,9.4-5.2,13.1-9c3.7-3.9,6.6-8.3,8.8-13.5
			c2.1-5.1,3.1-10.6,3.1-16.4c-0.1-7.7-1.9-14.7-5.5-21.1c-3.6-6.3-8.4-11.4-14.6-15.1C142.1-12684.7,135.1-12686.6,127.3-12686.6z"
			/>
		<path class="st0" d="M376.8-12462.5c-20.7,0-39.2-3.3-55.4-9.9c-16.2-6.6-29-15.6-38.2-27c-9.2-11.4-13.8-24.3-13.8-38.7
			c0-11,2.6-21.1,7.9-30.3c5.3-9.2,12.5-16.8,21.5-22.9c9.1-6.1,19.2-10,30.3-11.8v-2.1c-14.6-2.7-26.6-9.5-35.9-20.4
			c-9.3-10.9-14-23.7-14-38.3c0-13.9,4.2-26.2,12.7-37c8.4-10.8,20-19.4,34.7-25.6c14.7-6.2,31.4-9.4,50.2-9.4s35.5,3.1,50.2,9.4
			c14.7,6.2,26.2,14.8,34.7,25.6c8.4,10.8,12.7,23.2,12.7,37c0,14.7-4.7,27.5-14.1,38.4s-21.3,17.7-35.8,20.3v2.1
			c11.1,1.7,21.2,5.7,30.2,11.8c9.1,6.1,16.2,13.8,21.6,22.9c5.3,9.2,8,19.3,8,30.3c0,14.4-4.6,27.3-13.9,38.7s-22,20.4-38.1,27
			C416.1-12465.9,397.6-12462.5,376.8-12462.5z M376.8-12508.2c7.9,0,14.8-1.5,20.8-4.5s10.7-7.2,14.1-12.5
			c3.4-5.4,5.1-11.4,5.1-18.2c0-6.9-1.7-13.1-5.2-18.5s-8.2-9.6-14.2-12.7c-6-3.1-12.9-4.6-20.6-4.6c-7.6,0-14.5,1.5-20.5,4.6
			c-6.1,3.1-10.8,7.3-14.3,12.7s-5.2,11.5-5.2,18.5c0,6.8,1.7,12.8,5.1,18.1c3.4,5.3,8.1,9.5,14.2,12.5
			C362.1-12509.7,369-12508.2,376.8-12508.2z M376.8-12624.5c6.8,0,12.8-1.4,18-4.2c5.2-2.8,9.4-6.6,12.3-11.6
			c3-4.9,4.5-10.5,4.5-16.8s-1.5-11.7-4.5-16.5s-7.1-8.5-12.3-11.2c-5.2-2.7-11.2-4.1-18.1-4.1c-6.8,0-12.8,1.4-18.1,4.1
			c-5.3,2.7-9.4,6.5-12.3,11.2c-2.9,4.8-4.4,10.3-4.4,16.5s1.5,11.8,4.5,16.7s7.1,8.8,12.4,11.6
			C364.2-12625.9,370.2-12624.5,376.8-12624.5z"/>
		<path class="st0" d="M556.3-12462.4c-9.4,0-17.3-3.3-24-9.9c-6.6-6.6-9.9-14.6-9.8-23.9c-0.1-9.2,3.2-17,9.8-23.6
			c6.6-6.5,14.6-9.8,24-9.8c8.8,0,16.7,3.3,23.5,9.8s10.2,14.4,10.3,23.6c-0.1,6.2-1.7,11.9-4.9,17c-3.2,5.1-7.3,9.2-12.3,12.2
			C567.8-12463.9,562.3-12462.4,556.3-12462.4z"/>
		<path class="st0" d="M731.9-12736c14.6,0,28.5,2.4,41.7,7.1c13.3,4.7,25.1,12.2,35.5,22.5s18.6,23.8,24.6,40.5s9,37.1,9,61.2
			c0.1,22.2-2.5,42-7.8,59.6c-5.3,17.5-12.8,32.5-22.7,44.8c-9.8,12.3-21.6,21.7-35.4,28.1c-13.8,6.5-29.2,9.7-46.1,9.7
			c-18.7,0-35.2-3.6-49.4-10.9c-14.3-7.2-25.6-17-34.2-29.3c-8.5-12.3-13.6-26.1-15.3-41.3h63.3c2,8.8,6.2,15.5,12.6,19.9
			c6.4,4.5,14.1,6.7,23,6.7c16.3,0,28.5-7.1,36.5-21.2c8.1-14.1,12.1-33.3,12.1-57.6h-1.6c-3.7,8-9,14.8-15.8,20.5
			s-14.7,10.1-23.6,13.1s-18.3,4.5-28.2,4.5c-15.9,0-30-3.6-42.2-10.9s-21.7-17.3-28.6-30c-6.9-12.7-10.4-27.3-10.5-43.7
			c-0.1-18.4,4.2-34.6,12.9-48.7c8.7-14.1,20.7-25.1,36.3-33C693.4-12732.1,711.4-12736,731.9-12736z M732.2-12686.6
			c-8,0-15.1,1.9-21.2,5.6c-6.2,3.7-11.1,8.8-14.6,15.1c-3.6,6.3-5.3,13.4-5.2,21.3c0.1,7.9,1.9,15,5.4,21.3s8.3,11.4,14.4,15.1
			s13.1,5.6,21,5.6c5.9,0,11.3-1.1,16.4-3.2c5-2.2,9.4-5.2,13.1-9c3.7-3.9,6.6-8.3,8.8-13.5c2.1-5.1,3.1-10.6,3.1-16.4
			c-0.1-7.7-1.9-14.7-5.5-21.1c-3.6-6.3-8.4-11.4-14.6-15.1C747-12684.7,740-12686.6,732.2-12686.6z"/>
		<path class="st0" d="M1000.8-12732.3v266.1h-64.1v-206.1h-1.6l-59.5,36.4v-55.6l65.6-40.8L1000.8-12732.3L1000.8-12732.3z"/>
		<path class="st0" d="M1139.1-12391.3v-274.5h62.9v34.2h1.9c2.6-6.1,6.3-11.9,11.1-17.5c4.8-5.6,11-10.2,18.5-13.8s16.5-5.4,27-5.4
			c13.9,0,26.8,3.6,38.9,10.9s21.9,18.5,29.3,33.7c7.5,15.2,11.2,34.5,11.2,58c0,22.6-3.6,41.5-10.7,56.8
			c-7.1,15.2-16.8,26.7-28.8,34.3c-12.1,7.6-25.5,11.4-40.2,11.4c-10.1,0-18.8-1.6-26.1-4.9c-7.4-3.3-13.5-7.6-18.5-13
			s-8.8-11.1-11.5-17.3h-1.3v107.2h-63.7L1139.1-12391.3L1139.1-12391.3z M1201.4-12566c0,10.7,1.5,20.1,4.4,28.1
			s7.1,14.1,12.6,18.5s12.1,6.6,19.8,6.6c7.8,0,14.4-2.2,19.9-6.6c5.5-4.4,9.6-10.5,12.4-18.5s4.2-17.3,4.2-28.1
			c0-10.7-1.4-20.1-4.2-27.9c-2.8-7.9-6.9-14-12.3-18.3s-12.1-6.5-19.9-6.5s-14.4,2.1-19.9,6.4c-5.5,4.2-9.6,10.3-12.5,18.2
			C1202.8-12586.3,1201.4-12576.9,1201.4-12566z"/>
		<path class="st0" d="M1485.9-12665.8v46.8H1360v-46.8H1485.9z M1386.4-12713.6h63.5v184.7c0,3.9,0.6,7,1.9,9.4s3.1,4.1,5.5,5.1
			s5.3,1.5,8.7,1.5c2.4,0,5-0.2,7.7-0.7s4.8-0.9,6.2-1.2l9.6,45.9c-3,0.9-7.3,1.9-12.8,3.2s-12.1,2.1-19.7,2.5
			c-14.9,0.7-27.7-1.1-38.3-5.3c-10.6-4.2-18.7-10.8-24.3-19.7c-5.6-8.9-8.3-20.1-8.1-33.7L1386.4-12713.6L1386.4-12713.6z"/>
	</g>
</g>
<g>
	<g>
		<path class="st0" d="M-3027.1-12171.9h-65c-0.9-6.7-2.6-12.7-5.3-18.1c-2.7-5.4-6.2-10-10.7-13.8c-4.4-3.8-9.6-6.7-15.7-8.8
			c-6-2-12.7-3.1-19.9-3.1c-12.9,0-24,3.2-33.3,9.5s-16.5,15.5-21.4,27.4c-5,12-7.5,26.4-7.5,43.4c0,17.7,2.5,32.5,7.6,44.4
			s12.2,20.9,21.4,26.9s20.2,9,32.8,9c7.1,0,13.6-0.9,19.4-2.7c5.8-1.8,11-4.5,15.5-8s8.1-7.8,11-12.9c2.9-5.1,4.9-10.8,6-17.2
			l65,0.4c-1.1,11.8-4.5,23.4-10.2,34.8c-5.7,11.4-13.4,21.9-23.3,31.3c-9.9,9.4-21.9,16.9-36.1,22.4s-30.4,8.3-48.7,8.3
			c-24.1,0-45.6-5.3-64.6-15.9c-19-10.6-34-26.1-45-46.5s-16.5-45.1-16.5-74.3c0-29.3,5.6-54.1,16.8-74.5s26.3-35.8,45.4-46.4
			c19.1-10.6,40.4-15.9,64.1-15.9c16.1,0,31,2.2,44.7,6.7s25.7,11,36.1,19.5c10.4,8.5,18.8,19,25.3,31.4
			C-3032.7-12202-3028.7-12187.8-3027.1-12171.9z"/>
		<path class="st0" d="M-2897.3-11998.4c-21,0-39-4.3-54-12.9c-15-8.6-26.6-20.7-34.7-36.1c-8.1-15.5-12.2-33.4-12.2-53.9
			s4-38.5,12.2-54c8.1-15.5,19.7-27.5,34.7-36.1s33-12.9,54-12.9s39,4.3,54,12.9c15,8.6,26.6,20.7,34.7,36.1
			c8.1,15.5,12.2,33.5,12.2,54c0,20.4-4.1,38.4-12.2,53.9c-8.1,15.5-19.7,27.5-34.7,36.1
			C-2858.4-12002.7-2876.4-11998.4-2897.3-11998.4z M-2896.9-12046.4c7.6,0,14.1-2.3,19.4-7s9.3-11.2,12.2-19.5
			c2.8-8.3,4.2-17.9,4.2-28.8c0-11.1-1.4-20.8-4.2-29.1s-6.9-14.8-12.2-19.5s-11.7-7-19.4-7c-7.9,0-14.5,2.3-19.9,7
			s-9.5,11.2-12.3,19.5s-4.2,18-4.2,29.1c0,10.9,1.4,20.5,4.2,28.8s6.9,14.8,12.3,19.5
			C-2911.5-12048.7-2904.8-12046.4-2896.9-12046.4z"/>
		<path class="st0" d="M-2700.3-12268.3v266.1h-63.5v-266.1H-2700.3z"/>
		<path class="st0" d="M-2566.9-11998.4c-21,0-39-4.3-54-12.9c-15-8.6-26.6-20.7-34.7-36.1c-8.1-15.5-12.2-33.4-12.2-53.9
			s4-38.5,12.2-54c8.1-15.5,19.7-27.5,34.7-36.1s33-12.9,54-12.9s39,4.3,54,12.9c15,8.6,26.6,20.7,34.7,36.1
			c8.1,15.5,12.2,33.5,12.2,54c0,20.4-4.1,38.4-12.2,53.9c-8.1,15.5-19.7,27.5-34.7,36.1
			C-2527.9-12002.7-2545.9-11998.4-2566.9-11998.4z M-2566.5-12046.4c7.6,0,14.1-2.3,19.4-7s9.3-11.2,12.2-19.5
			c2.8-8.3,4.2-17.9,4.2-28.8c0-11.1-1.4-20.8-4.2-29.1s-6.9-14.8-12.2-19.5s-11.7-7-19.4-7c-7.9,0-14.5,2.3-19.9,7
			s-9.5,11.2-12.3,19.5s-4.2,18-4.2,29.1c0,10.9,1.4,20.5,4.2,28.8s6.9,14.8,12.3,19.5C-2581-12048.7-2574.4-12046.4-2566.5-12046.4
			z"/>
		<path class="st0" d="M-2433.4-12002.2v-199.6h61.7v36.4h2.1c3.6-13.2,9.6-23,17.8-29.4c8.2-6.5,17.8-9.7,28.7-9.7
			c2.9,0,6,0.2,9.1,0.6c3.1,0.4,6,1,8.7,1.8v55.2c-3-1-7-1.9-11.9-2.5s-9.2-0.9-13.1-0.9c-7.5,0-14.3,1.7-20.3,5s-10.7,8-14.2,13.9
			c-3.4,5.9-5.1,12.9-5.1,20.9v108.4L-2433.4-12002.2L-2433.4-12002.2z"/>
		<path class="st0" d="M-1959-12171.9h-65c-0.9-6.7-2.6-12.7-5.3-18.1c-2.7-5.4-6.2-10-10.7-13.8c-4.4-3.8-9.6-6.7-15.7-8.8
			c-6-2-12.7-3.1-19.9-3.1c-12.9,0-24,3.2-33.3,9.5s-16.5,15.5-21.4,27.4c-5,12-7.5,26.4-7.5,43.4c0,17.7,2.5,32.5,7.6,44.4
			s12.2,20.9,21.4,26.9s20.2,9,32.8,9c7.1,0,13.6-0.9,19.4-2.7c5.8-1.8,11-4.5,15.5-8s8.1-7.8,11-12.9c2.9-5.1,4.9-10.8,6-17.2
			l65,0.4c-1.1,11.8-4.5,23.4-10.2,34.8c-5.7,11.4-13.4,21.9-23.3,31.3c-9.9,9.4-21.9,16.9-36.1,22.4c-14.2,5.5-30.4,8.3-48.7,8.3
			c-24.1,0-45.6-5.3-64.6-15.9c-19-10.6-34-26.1-45-46.5s-16.5-45.1-16.5-74.3c0-29.3,5.6-54.1,16.8-74.5s26.3-35.8,45.4-46.4
			c19.1-10.6,40.4-15.9,64.1-15.9c16.1,0,31,2.2,44.7,6.7s25.7,11,36.1,19.5c10.4,8.5,18.8,19,25.3,31.4
			C-1964.6-12202-1960.5-12187.8-1959-12171.9z"/>
		<path class="st0" d="M-1829.2-11998.4c-21,0-39-4.3-54-12.9c-15-8.6-26.6-20.7-34.7-36.1c-8.1-15.5-12.2-33.4-12.2-53.9
			s4-38.5,12.2-54c8.1-15.5,19.7-27.5,34.7-36.1s33-12.9,54-12.9s39,4.3,54,12.9c15,8.6,26.6,20.7,34.7,36.1
			c8.1,15.5,12.2,33.5,12.2,54c0,20.4-4.1,38.4-12.2,53.9s-19.7,27.5-34.7,36.1C-1790.2-12002.7-1808.2-11998.4-1829.2-11998.4z
			 M-1828.8-12046.4c7.6,0,14.1-2.3,19.4-7s9.3-11.2,12.2-19.5c2.8-8.3,4.2-17.9,4.2-28.8c0-11.1-1.4-20.8-4.2-29.1
			s-6.9-14.8-12.2-19.5s-11.7-7-19.4-7c-7.9,0-14.5,2.3-19.9,7s-9.5,11.2-12.3,19.5s-4.2,18-4.2,29.1c0,10.9,1.4,20.5,4.2,28.8
			s6.9,14.8,12.3,19.5S-1836.7-12046.4-1828.8-12046.4z"/>
		<path class="st0" d="M-1622.8-11999.3c-14.7,0-28.1-3.8-40.2-11.4c-12-7.6-21.7-19.1-28.8-34.3c-7.2-15.2-10.8-34.2-10.8-56.8
			c0-23.5,3.7-42.8,11.2-58c7.4-15.2,17.2-26.4,29.3-33.7c12.1-7.3,25.1-10.9,39-10.9c10.5,0,19.4,1.8,26.9,5.4
			c7.5,3.6,13.6,8.2,18.5,13.8s8.5,11.5,11,17.5h1.3v-100.7h63.5v266.1h-62.9v-32.4h-1.9c-2.7,6.2-6.5,11.9-11.4,17.3
			c-4.9,5.4-11.1,9.7-18.5,13C-1604-12001-1612.8-11999.3-1622.8-11999.3z M-1600.7-12048.8c7.7,0,14.3-2.2,19.8-6.6
			c5.5-4.4,9.7-10.5,12.6-18.5s4.4-17.3,4.4-28.1c0-10.9-1.5-20.3-4.4-28.2s-7.1-13.9-12.6-18.2c-5.5-4.2-12.1-6.4-19.8-6.4
			c-7.9,0-14.6,2.2-20,6.5c-5.5,4.3-9.6,10.4-12.4,18.3c-2.8,7.9-4.2,17.2-4.2,27.9s1.4,20.1,4.3,28.1s7,14.1,12.4,18.5
			C-1615.3-12051-1608.6-12048.8-1600.7-12048.8z"/>
		<path class="st0" d="M-1368.2-11998.4c-20.9,0-38.9-4.1-54-12.4s-26.7-20.1-34.8-35.5c-8.1-15.4-12.1-33.7-12.1-54.9
			c0-20.6,4.1-38.7,12.2-54.1c8.1-15.5,19.6-27.5,34.4-36.1s32.3-12.9,52.4-12.9c14.2,0,27.2,2.2,39,6.6c11.8,4.4,22,11,30.5,19.6
			c8.6,8.7,15.2,19.3,20,32s7.1,27.2,7.1,43.6v15.9H-1447v-36.9h114.4c-0.1-6.8-1.7-12.8-4.8-18.1s-7.4-9.4-12.8-12.4
			s-11.6-4.5-18.6-4.5c-7.1,0-13.5,1.6-19.1,4.7c-5.6,3.2-10.1,7.5-13.4,12.9s-5,11.5-5.2,18.4v37.6c0,8.1,1.6,15.3,4.8,21.4
			c3.2,6.1,7.8,10.9,13.6,14.2c5.9,3.4,12.9,5.1,21.1,5.1c5.6,0,10.7-0.8,15.3-2.3c4.6-1.6,8.5-3.9,11.8-6.9s5.8-6.8,7.4-11.2
			l58.3,1.7c-2.4,13.1-7.7,24.5-15.9,34.1c-8.2,9.7-18.9,17.2-32.2,22.5S-1350.8-11998.4-1368.2-11998.4z"/>
		<path class="st0" d="M-1126.4-12135.4c-9.4,0-17.3-3.3-24-9.8c-6.6-6.5-9.9-14.5-9.8-24c-0.1-9.2,3.2-17,9.8-23.6
			c6.6-6.5,14.6-9.8,24-9.8c8.8,0,16.7,3.3,23.5,9.8s10.2,14.4,10.3,23.6c-0.1,6.2-1.7,11.9-4.9,17c-3.2,5.1-7.3,9.2-12.3,12.2
			C-1114.9-12136.9-1120.4-12135.4-1126.4-12135.4z M-1126.4-11998.4c-9.4,0-17.3-3.3-24-9.9c-6.6-6.6-9.9-14.6-9.8-23.9
			c-0.1-9.2,3.2-17,9.8-23.6c6.6-6.5,14.6-9.8,24-9.8c8.8,0,16.7,3.3,23.5,9.8s10.2,14.4,10.3,23.6c-0.1,6.2-1.7,11.9-4.9,17
			c-3.2,5.1-7.3,9.2-12.3,12.2C-1114.9-11999.9-1120.4-11998.4-1126.4-11998.4z"/>
		<path class="st0" d="M-989.1-12065.6l7.9-46.8h211l-7.9,46.8H-989.1z M-973.9-12158.1l7.9-46.8h211l-7.9,46.8H-973.9z
			 M-964-12002.2l43.7-266.1h46.8l-43.7,266.1H-964z M-870.4-12002.2l43.7-266.1h46.8l-43.7,266.1H-870.4z"/>
		<path class="st0" d="M-731.9-12002.2v-266.1h181.7v52.2h-117.3v54.6h105.8v52.4h-105.8v106.9L-731.9-12002.2L-731.9-12002.2z"/>
		<path class="st0" d="M-518-12002.2v-266.1h181.7v52.2h-117.3v54.6h105.8v52.4h-105.8v106.9L-518-12002.2L-518-12002.2z"/>
		<path class="st0" d="M-194.6-11995.7c-23.2,0-43.2-5.5-60-16.6c-16.8-11-29.8-26.9-38.9-47.7c-9.1-20.7-13.6-45.7-13.5-74.9
			s4.7-54,13.7-74.4c9.1-20.4,22-36,38.7-46.7c16.8-10.7,36.8-16,60-16s43.3,5.4,60.1,16c16.8,10.7,29.8,26.3,38.9,46.7
			s13.6,45.2,13.5,74.3c0,29.3-4.5,54.3-13.6,75.1s-22,36.7-38.8,47.6C-151.2-12001.2-171.3-11995.7-194.6-11995.7z M-194.6-12048.3
			c13.9,0,25.1-7.1,33.7-21.2c8.6-14.2,12.8-35.9,12.7-65.3c0-19.2-1.9-35.1-5.8-47.6s-9.3-21.9-16.2-28c-6.9-6.1-15-9.2-24.3-9.2
			c-13.8,0-24.9,7-33.4,20.9s-12.8,35.2-12.9,64c-0.1,19.5,1.8,35.7,5.7,48.5c3.9,12.8,9.3,22.4,16.3,28.7
			C-211.8-12051.5-203.7-12048.3-194.6-12048.3z"/>
		<path class="st0" d="M64.9-11995.7c-23.2,0-43.2-5.5-60-16.6c-16.8-11-29.8-26.9-38.9-47.7c-9.1-20.7-13.6-45.7-13.5-74.9
			s4.7-54,13.7-74.4c9.1-20.4,22-36,38.7-46.7c16.8-10.7,36.8-16,60-16s43.3,5.4,60.1,16c16.8,10.7,29.8,26.3,38.9,46.7
			s13.6,45.2,13.5,74.3c0,29.3-4.5,54.3-13.6,75.1c-9.1,20.8-22,36.7-38.8,47.6C108.3-12001.2,88.3-11995.7,64.9-11995.7z
			 M64.9-12048.3c13.9,0,25.1-7.1,33.7-21.2c8.6-14.2,12.8-35.9,12.7-65.3c0-19.2-1.9-35.1-5.8-47.6s-9.3-21.9-16.2-28
			s-15-9.2-24.3-9.2c-13.8,0-24.9,7-33.4,20.9s-12.8,35.2-12.9,64c-0.1,19.5,1.8,35.7,5.7,48.5s9.3,22.4,16.3,28.7
			C47.7-12051.5,55.8-12048.3,64.9-12048.3z"/>
		<path class="st0" d="M324.5-11995.7c-23.2,0-43.2-5.5-60-16.6c-16.8-11-29.8-26.9-38.9-47.7c-9.1-20.7-13.6-45.7-13.5-74.9
			c0.1-29.2,4.7-54,13.7-74.4c9.1-20.4,22-36,38.7-46.7c16.8-10.7,36.8-16,60-16s43.3,5.4,60.1,16c16.8,10.7,29.8,26.3,38.9,46.7
			c9.1,20.4,13.6,45.2,13.5,74.3c0,29.3-4.5,54.3-13.6,75.1s-22,36.7-38.8,47.6C367.8-12001.2,347.8-11995.7,324.5-11995.7z
			 M324.5-12048.3c13.9,0,25.1-7.1,33.7-21.2c8.6-14.2,12.8-35.9,12.7-65.3c0-19.2-1.9-35.1-5.8-47.6c-3.9-12.5-9.3-21.9-16.2-28
			s-15-9.2-24.3-9.2c-13.8,0-24.9,7-33.4,20.9c-8.5,13.9-12.8,35.2-12.9,64c-0.1,19.5,1.8,35.7,5.7,48.5
			c3.9,12.8,9.3,22.4,16.3,28.7C307.2-12051.5,315.3-12048.3,324.5-12048.3z"/>
		<path class="st0" d="M584-11995.7c-23.2,0-43.2-5.5-60-16.6c-16.8-11-29.8-26.9-38.9-47.7c-9.1-20.7-13.6-45.7-13.5-74.9
			s4.7-54,13.7-74.4c9.1-20.4,22-36,38.7-46.7c16.8-10.7,36.8-16,60-16c23.2,0,43.3,5.4,60.1,16c16.8,10.7,29.8,26.3,38.9,46.7
			c9.1,20.4,13.6,45.2,13.5,74.3c0,29.3-4.5,54.3-13.6,75.1s-22,36.7-38.8,47.6C627.3-12001.2,607.3-11995.7,584-11995.7z
			 M584-12048.3c13.9,0,25.1-7.1,33.7-21.2c8.6-14.2,12.8-35.9,12.7-65.3c0-19.2-1.9-35.1-5.8-47.6s-9.3-21.9-16.2-28
			s-15-9.2-24.3-9.2c-13.8,0-24.9,7-33.4,20.9s-12.8,35.2-12.9,64c-0.1,19.5,1.8,35.7,5.7,48.5c3.9,12.8,9.3,22.4,16.3,28.7
			C566.7-12051.5,574.8-12048.3,584-12048.3z"/>
		<path class="st0" d="M877.5-12038.6l-1.2,14.4c-1,12-3.1,23.6-6.3,35s-6.5,21.6-10.1,30.7c-3.6,9.1-6.4,16.2-8.4,21.2h-40
			c1.4-5,3.3-12.1,5.7-21.2c2.4-9.1,4.6-19.4,6.7-30.8c2.1-11.4,3.2-23,3.5-34.8l0.3-14.6L877.5-12038.6L877.5-12038.6z"/>
		<path class="st2" d="M1066.5-12065.6l7.9-46.8h211l-7.9,46.8H1066.5z M1081.7-12158.1l7.9-46.8h211l-7.9,46.8H1081.7z
			 M1091.5-12002.2l43.7-266.1h46.8l-43.7,266.1H1091.5z M1185.1-12002.2l43.7-266.1h46.8l-43.7,266.1H1185.1z"/>
		<path class="st2" d="M1446.2-12268.3v266.1H1382v-206.1h-1.6l-59.5,36.4v-55.6l65.6-40.8L1446.2-12268.3L1446.2-12268.3z"/>
		<path class="st2" d="M1611.8-11998.6c-14.6,0-28.5-2.4-41.8-7.1s-25.2-12.3-35.6-22.6c-10.4-10.4-18.6-24-24.6-40.8
			s-8.9-37.4-8.8-61.7c0.1-21.9,2.8-41.6,8.1-59.1c5.3-17.5,12.8-32.3,22.7-44.5c9.8-12.2,21.6-21.5,35.3-28
			c13.7-6.5,29.1-9.7,46.1-9.7c18.6,0,35.1,3.6,49.3,10.9c14.2,7.2,25.7,16.9,34.2,29.1c8.6,12.2,13.6,25.7,15.2,40.6h-63.3
			c-1.9-8.4-6.1-14.8-12.5-19.2c-6.5-4.4-14.1-6.6-22.9-6.6c-16.3,0-28.4,7.1-36.5,21.2c-8,14.1-12.1,33-12.3,56.7h1.7
			c3.6-8,8.9-14.8,15.7-20.5c6.8-5.7,14.7-10.1,23.6-13.2c8.9-3.1,18.3-4.6,28.3-4.6c15.9,0,30,3.7,42.2,11
			c12.2,7.4,21.8,17.4,28.7,30.2c6.9,12.8,10.4,27.4,10.3,43.9c0.1,18.5-4.2,34.9-13,49.1s-20.9,25.2-36.3,33.1
			C1650.1-12002.5,1632.2-11998.6,1611.8-11998.6z M1611.5-12047.9c7.9,0,14.9-1.9,21.2-5.6c6.2-3.7,11.1-8.8,14.7-15.2
			s5.3-13.6,5.2-21.7c0.1-8.1-1.6-15.4-5.1-21.7s-8.4-11.3-14.6-15.1c-6.2-3.7-13.3-5.6-21.2-5.6c-5.8,0-11.2,1.1-16.2,3.2
			c-5,2.2-9.4,5.2-13.1,9c-3.7,3.9-6.6,8.4-8.6,13.5c-2.1,5.2-3.2,10.7-3.2,16.7c0.1,7.9,1.9,15,5.5,21.4s8.4,11.5,14.6,15.3
			C1596.6-12049.8,1603.6-12047.9,1611.5-12047.9z"/>
		<path class="st2" d="M1874.3-12268.3v266.1h-64.2v-206.1h-1.6l-59.5,36.4v-55.6l65.6-40.8L1874.3-12268.3L1874.3-12268.3z"/>
		<path class="st2" d="M2040-11998.6c-14.6,0-28.5-2.4-41.8-7.1s-25.2-12.3-35.6-22.6c-10.4-10.4-18.6-24-24.6-40.8
			s-8.9-37.4-8.8-61.7c0.1-21.9,2.8-41.6,8.1-59.1c5.3-17.5,12.8-32.3,22.7-44.5c9.8-12.2,21.6-21.5,35.3-28
			c13.7-6.5,29.1-9.7,46.1-9.7c18.6,0,35.1,3.6,49.3,10.9c14.2,7.2,25.7,16.9,34.2,29.1c8.6,12.2,13.6,25.7,15.2,40.6h-63.3
			c-1.9-8.4-6.1-14.8-12.5-19.2c-6.5-4.4-14.1-6.6-22.9-6.6c-16.3,0-28.4,7.1-36.5,21.2c-8,14.1-12.1,33-12.3,56.7h1.7
			c3.6-8,8.9-14.8,15.7-20.5c6.8-5.7,14.7-10.1,23.6-13.2c8.9-3.1,18.3-4.6,28.3-4.6c15.9,0,30,3.7,42.2,11
			c12.2,7.4,21.8,17.4,28.7,30.2c6.9,12.8,10.4,27.4,10.3,43.9c0.1,18.5-4.2,34.9-13,49.1s-20.9,25.2-36.3,33.1
			C2078.3-12002.5,2060.4-11998.6,2040-11998.6z M2039.6-12047.9c7.9,0,14.9-1.9,21.2-5.6c6.2-3.7,11.1-8.8,14.7-15.2
			c3.6-6.4,5.3-13.6,5.2-21.7c0.1-8.1-1.6-15.4-5.1-21.7s-8.4-11.3-14.6-15.1c-6.2-3.7-13.3-5.6-21.2-5.6c-5.8,0-11.2,1.1-16.2,3.2
			c-5,2.2-9.4,5.2-13.1,9c-3.7,3.9-6.6,8.4-8.6,13.5c-2.1,5.2-3.2,10.7-3.2,16.7c0.1,7.9,1.9,15,5.5,21.4s8.4,11.5,14.6,15.3
			C2024.7-12049.8,2031.8-12047.9,2039.6-12047.9z"/>
		<path class="st2" d="M2302.5-12268.3v266.1h-64.2v-206.1h-1.6l-59.5,36.4v-55.6l65.6-40.8L2302.5-12268.3L2302.5-12268.3z"/>
		<path class="st2" d="M2468.2-11998.6c-14.6,0-28.5-2.4-41.8-7.1s-25.2-12.3-35.6-22.6c-10.4-10.4-18.6-24-24.6-40.8
			s-8.9-37.4-8.8-61.7c0.1-21.9,2.8-41.6,8.1-59.1s12.8-32.3,22.7-44.5c9.8-12.2,21.6-21.5,35.3-28s29.1-9.7,46.1-9.7
			c18.6,0,35.1,3.6,49.3,10.9c14.2,7.2,25.7,16.9,34.2,29.1c8.6,12.2,13.6,25.7,15.2,40.6H2505c-1.9-8.4-6.1-14.8-12.5-19.2
			c-6.5-4.4-14.1-6.6-22.9-6.6c-16.3,0-28.4,7.1-36.5,21.2c-8,14.1-12.1,33-12.3,56.7h1.7c3.6-8,8.9-14.8,15.7-20.5
			s14.7-10.1,23.6-13.2c8.9-3.1,18.3-4.6,28.3-4.6c15.9,0,30,3.7,42.2,11c12.2,7.4,21.8,17.4,28.7,30.2s10.4,27.4,10.3,43.9
			c0.1,18.5-4.2,34.9-13,49.1s-20.9,25.2-36.3,33.1C2506.5-12002.5,2488.6-11998.6,2468.2-11998.6z M2467.8-12047.9
			c7.9,0,14.9-1.9,21.2-5.6c6.2-3.7,11.1-8.8,14.7-15.2s5.3-13.6,5.2-21.7c0.1-8.1-1.6-15.4-5.1-21.7s-8.4-11.3-14.6-15.1
			c-6.2-3.7-13.3-5.6-21.2-5.6c-5.8,0-11.2,1.1-16.2,3.2c-5,2.2-9.4,5.2-13.1,9c-3.7,3.9-6.6,8.4-8.6,13.5
			c-2.1,5.2-3.2,10.7-3.2,16.7c0.1,7.9,1.9,15,5.5,21.4s8.4,11.5,14.6,15.3C2452.9-12049.8,2459.9-12047.9,2467.8-12047.9z"/>
	</g>
</g>
<g>
	<path class="st0" d="M30,203.5c-2.9,0-5.8-0.2-8.4-0.7s-4.7-1.1-6.4-1.8l5.3-17.4c2.7,0.9,5.3,1.3,7.4,1.5c2.2,0,4.2-0.4,5.8-1.5
		c1.6-1.1,2.9-2.9,4-5.6l1.5-3.6l-30.3-87h24.7L51,149.4h0.9l17.6-62.1h24.9L61.6,181c-1.6,4.5-3.6,8.5-6.4,12
		c-2.7,3.4-6.2,6-10.2,7.8C41,202.6,35.8,203.5,30,203.5z"/>
	<path class="st0" d="M151.4,87.3v17.6h-51V87.3H151.4z M112,67h23.4v78.8c0,2.2,0.4,3.8,0.9,5.1c0.5,1.3,1.6,2,2.7,2.5
		s2.5,0.7,4.2,0.7c1.1,0,2.2-0.2,3.3-0.4c1.1-0.2,2-0.4,2.5-0.5l3.6,17.4c-1.1,0.4-2.9,0.7-4.9,1.3c-2.2,0.5-4.7,0.7-7.8,0.9
		c-5.6,0.2-10.5-0.5-14.9-2.2c-4.2-1.8-7.6-4.4-9.8-8c-2.4-3.6-3.4-8.2-3.4-13.8L112,67L112,67z"/>
	<path class="st0" d="M237.1,111.5l-21.4,1.3c-0.4-1.8-1.1-3.4-2.4-4.9c-1.3-1.5-2.7-2.7-4.7-3.6s-4.4-1.3-7.1-1.3
		c-3.6,0-6.7,0.7-9.3,2.4c-2.5,1.5-3.8,3.6-3.8,6.2c0,2,0.7,3.8,2.4,5.1c1.6,1.5,4.4,2.5,8.4,3.4l15.3,3.1
		c8.2,1.6,14.3,4.4,18.3,8.2c4,3.8,6,8.7,6,14.7c0,5.6-1.6,10.3-4.9,14.5c-3.3,4.2-7.6,7.4-13.3,9.8c-5.6,2.4-12.2,3.4-19.4,3.4
		c-11.3,0-20.2-2.4-26.7-7.1c-6.5-4.7-10.5-11.1-11.6-19.1l23.1-1.3c0.7,3.4,2.4,6,5.1,7.8c2.7,1.8,6.2,2.7,10.3,2.7s7.4-0.7,10-2.4
		c2.5-1.6,3.8-3.6,3.8-6.2c0-2.2-0.9-3.8-2.7-5.3c-1.8-1.5-4.5-2.4-8.2-3.1l-14.7-2.9c-8.4-1.6-14.3-4.5-18.3-8.5c-4-4-6-9.3-6-15.6
		c0-5.4,1.5-10.2,4.4-14c2.9-3.8,7.1-6.9,12.5-9.1s11.6-3.3,18.9-3.3c10.7,0,19.1,2.2,25.2,6.7C232.4,97.5,236,103.7,237.1,111.5z"
		/>
	<path class="st0" d="M277.2,122.9v48.8h-23.4V59h22.9v43.2h0.9c2-5.1,5.1-8.9,9.3-11.8c4.2-2.9,9.6-4.4,16-4.4
		c5.8,0,11.1,1.3,15.4,3.8c4.4,2.5,7.8,6.2,10.2,10.9c2.4,4.7,3.6,10.5,3.6,17.1v53.9h-23.4V122c0-5.3-1.3-9.3-4-12.2
		c-2.7-2.9-6.4-4.4-11.1-4.4c-3.3,0-6,0.7-8.5,2c-2.4,1.3-4.4,3.3-5.8,6C278,116.2,277.2,119.3,277.2,122.9z"/>
	<path class="st0" d="M388.9,173.6c-8.5,0-16-1.8-22.2-5.4c-6.2-3.6-11.1-8.7-14.3-15.3c-3.4-6.5-5.1-14.2-5.1-22.9
		s1.6-16.3,5.1-22.9c3.4-6.5,8.2-11.6,14.3-15.3c6.2-3.6,13.6-5.4,22.2-5.4c8.5,0,16,1.8,22.2,5.4s11.1,8.7,14.3,15.3
		c3.4,6.5,5.1,14.2,5.1,22.9c0,8.7-1.6,16.3-5.1,22.9c-3.4,6.5-8.2,11.6-14.3,15.3C404.9,171.7,397.4,173.6,388.9,173.6z
		 M388.9,155.4c3.8,0,7.1-1.1,9.8-3.3c2.5-2.2,4.5-5.3,6-9.1s2-8.2,2-13.3c0-4.9-0.7-9.3-2-13.3c-1.3-4-3.3-6.9-6-9.1
		c-2.5-2.2-5.8-3.4-9.8-3.4c-4,0-7.3,1.1-9.8,3.4c-2.7,2.2-4.7,5.3-6,9.1s-2,8.2-2,13.3c0,4.9,0.7,9.3,2,13.3c1.3,4,3.3,6.9,6,9.1
		C381.8,154.3,385.1,155.4,388.9,155.4z"/>
	<path class="st0" d="M445.9,203.5V87.1H469v14.2h1.1c1.1-2.4,2.5-4.5,4.5-6.9c2-2.4,4.5-4.4,7.6-6c3.1-1.6,7.1-2.4,11.8-2.4
		c6.2,0,11.8,1.6,17.1,4.9s9.4,8,12.5,14.5c3.1,6.4,4.7,14.5,4.7,24.1c0,9.4-1.5,17.4-4.5,24c-3.1,6.5-7.1,11.4-12.3,14.7
		c-5.3,3.3-11.1,4.9-17.4,4.9c-4.5,0-8.4-0.7-11.6-2.2c-3.3-1.5-5.8-3.4-7.8-5.6c-2-2.4-3.6-4.5-4.5-6.9h-0.7v45.2h-23.4
		L445.9,203.5L445.9,203.5z M468.8,129.6c0,5.1,0.7,9.4,2.2,13.3c1.5,3.8,3.4,6.7,6,8.7c2.7,2,5.8,3.1,9.6,3.1
		c3.8,0,7.1-1.1,9.6-3.1c2.5-2,4.7-5.1,6-8.9c1.5-3.8,2-8.2,2-13.1c0-4.9-0.7-9.3-2-12.9c-1.3-3.6-3.4-6.5-6-8.7s-5.8-3.1-9.8-3.1
		c-3.8,0-7.1,1.1-9.6,3.1c-2.5,2-4.7,4.9-6,8.5C469.5,120.2,468.8,124.5,468.8,129.6z"/>
	<path class="st0" d="M614.4,111.5l-21.4,1.3c-0.4-1.8-1.1-3.4-2.4-4.9c-1.3-1.5-2.7-2.7-4.7-3.6s-4.4-1.3-7.1-1.3
		c-3.6,0-6.7,0.7-9.3,2.4c-2.5,1.5-3.8,3.6-3.8,6.2c0,2,0.7,3.8,2.4,5.1c1.6,1.5,4.4,2.5,8.4,3.4l15.3,3.1
		c8.2,1.6,14.3,4.4,18.3,8.2c4,3.8,6,8.7,6,14.7c0,5.6-1.6,10.3-4.9,14.5c-3.3,4.2-7.6,7.4-13.3,9.8c-5.6,2.4-12.2,3.4-19.4,3.4
		c-11.3,0-20.2-2.4-26.7-7.1c-6.5-4.7-10.5-11.1-11.6-19.1l23.1-1.3c0.7,3.4,2.4,6,5.1,7.8c2.7,1.8,6.2,2.7,10.3,2.7
		c4.2,0,7.4-0.7,10-2.4s3.8-3.6,3.8-6.2c0-2.2-0.9-3.8-2.7-5.3c-1.8-1.5-4.5-2.4-8.2-3.1l-14.7-2.9c-8.4-1.6-14.3-4.5-18.3-8.5
		c-4-4-6-9.3-6-15.6c0-5.4,1.5-10.2,4.4-14c2.9-3.8,7.1-6.9,12.5-9.1c5.4-2.2,11.6-3.3,18.9-3.3c10.7,0,19.1,2.2,25.2,6.7
		C609.7,97.5,613.3,103.7,614.4,111.5z"/>
</g>
<g>
	<g>
		<path class="st0" d="M797.2,87.7h-92.4c-24.1,0-43.8,19.6-43.8,43.8s19.6,43.8,43.8,43.8h92.4c24.1,0,43.8-19.6,43.8-43.8
			C841,107.1,821.4,87.7,797.2,87.7z"/>
	</g>
	<g>
		<path class="st1" d="M699.9,144h-6.5l8.5-25.4h8.2l8.5,25.4h-6.5l-6-19.1h-0.2L699.9,144z M699,134h13.8v4.7H699V134z"/>
		<path class="st1" d="M719.9,144v-25.4h6.2v20.5h10.5v4.9H719.9L719.9,144z"/>
		<path class="st1" d="M738.4,144v-25.4h10.5c1.8,0,3.6,0.4,4.9,1.1c1.5,0.7,2.4,1.8,3.3,3.1c0.7,1.3,1.1,2.9,1.1,4.5
			c0,1.8-0.4,3.3-1.1,4.5c-0.7,1.3-1.8,2.4-3.3,3.1c-1.5,0.7-3.1,1.1-5.1,1.1h-6.5v-4.9h5.3c0.9,0,1.6-0.2,2.4-0.5
			c0.7-0.4,1.1-0.7,1.5-1.5c0.4-0.7,0.5-1.3,0.5-2s-0.2-1.5-0.5-2c-0.4-0.5-0.7-1.1-1.5-1.3c-0.5-0.4-1.5-0.5-2.4-0.5h-2.9v20.5
			L738.4,144L738.4,144L738.4,144z"/>
		<path class="st1" d="M759.8,144v-25.4h6.2v10.2h10v-10.2h6.2V144H776v-10.2h-10V144H759.8L759.8,144z"/>
		<path class="st1" d="M790.2,144h-6.5l8.5-25.4h8.2l8.5,25.4h-6.5l-6-19.1h-0.2L790.2,144z M789.3,134h13.8v4.7h-13.8V134z"/>
	</g>
</g>
<image style="overflow:visible;enable-background:new    ;" width="1921" height="1081" xlink:href="D1FF5693.jpg"  transform="matrix(0.9994 0 0 0.9994 -7765.9067 -8060.166)">
</image>
</svg>
